<?xml version="1.0" encoding="utf-8"?>
<svg xmlns="http://www.w3.org/2000/svg" xmlns:xlink="http://www.w3.org/1999/xlink" width="600" height="400" viewBox="0 0 2400 1600">
<defs>
  <clipPath id="clip920">
    <rect x="0" y="0" width="2400" height="1600"/>
  </clipPath>
</defs>
<path clip-path="url(#clip920)" d="M0 1600 L2400 1600 L2400 0 L0 0  Z" fill="#ffffff" fill-rule="evenodd" fill-opacity="1"/>
<defs>
  <clipPath id="clip921">
    <rect x="480" y="0" width="1681" height="1600"/>
  </clipPath>
</defs>
<path clip-path="url(#clip920)" d="M265.445 1423.18 L2352.76 1423.18 L2352.76 123.472 L265.445 123.472  Z" fill="#ffffff" fill-rule="evenodd" fill-opacity="1"/>
<defs>
  <clipPath id="clip922">
    <rect x="265" y="123" width="2088" height="1301"/>
  </clipPath>
</defs>
<polyline clip-path="url(#clip922)" style="stroke:#000000; stroke-linecap:round; stroke-linejoin:round; stroke-width:2; stroke-opacity:0.1; fill:none" points="324.52,1423.18 324.52,123.472 "/>
<polyline clip-path="url(#clip922)" style="stroke:#000000; stroke-linecap:round; stroke-linejoin:round; stroke-width:2; stroke-opacity:0.1; fill:none" points="627.467,1423.18 627.467,123.472 "/>
<polyline clip-path="url(#clip922)" style="stroke:#000000; stroke-linecap:round; stroke-linejoin:round; stroke-width:2; stroke-opacity:0.1; fill:none" points="930.415,1423.18 930.415,123.472 "/>
<polyline clip-path="url(#clip922)" style="stroke:#000000; stroke-linecap:round; stroke-linejoin:round; stroke-width:2; stroke-opacity:0.1; fill:none" points="1233.36,1423.18 1233.36,123.472 "/>
<polyline clip-path="url(#clip922)" style="stroke:#000000; stroke-linecap:round; stroke-linejoin:round; stroke-width:2; stroke-opacity:0.1; fill:none" points="1536.31,1423.18 1536.31,123.472 "/>
<polyline clip-path="url(#clip922)" style="stroke:#000000; stroke-linecap:round; stroke-linejoin:round; stroke-width:2; stroke-opacity:0.1; fill:none" points="1839.26,1423.18 1839.26,123.472 "/>
<polyline clip-path="url(#clip922)" style="stroke:#000000; stroke-linecap:round; stroke-linejoin:round; stroke-width:2; stroke-opacity:0.1; fill:none" points="2142.21,1423.18 2142.21,123.472 "/>
<polyline clip-path="url(#clip920)" style="stroke:#000000; stroke-linecap:round; stroke-linejoin:round; stroke-width:4; stroke-opacity:1; fill:none" points="265.445,1423.18 2352.76,1423.18 "/>
<polyline clip-path="url(#clip920)" style="stroke:#000000; stroke-linecap:round; stroke-linejoin:round; stroke-width:4; stroke-opacity:1; fill:none" points="324.52,1423.18 324.52,1404.28 "/>
<polyline clip-path="url(#clip920)" style="stroke:#000000; stroke-linecap:round; stroke-linejoin:round; stroke-width:4; stroke-opacity:1; fill:none" points="627.467,1423.18 627.467,1404.28 "/>
<polyline clip-path="url(#clip920)" style="stroke:#000000; stroke-linecap:round; stroke-linejoin:round; stroke-width:4; stroke-opacity:1; fill:none" points="930.415,1423.18 930.415,1404.28 "/>
<polyline clip-path="url(#clip920)" style="stroke:#000000; stroke-linecap:round; stroke-linejoin:round; stroke-width:4; stroke-opacity:1; fill:none" points="1233.36,1423.18 1233.36,1404.28 "/>
<polyline clip-path="url(#clip920)" style="stroke:#000000; stroke-linecap:round; stroke-linejoin:round; stroke-width:4; stroke-opacity:1; fill:none" points="1536.31,1423.18 1536.31,1404.28 "/>
<polyline clip-path="url(#clip920)" style="stroke:#000000; stroke-linecap:round; stroke-linejoin:round; stroke-width:4; stroke-opacity:1; fill:none" points="1839.26,1423.18 1839.26,1404.28 "/>
<polyline clip-path="url(#clip920)" style="stroke:#000000; stroke-linecap:round; stroke-linejoin:round; stroke-width:4; stroke-opacity:1; fill:none" points="2142.21,1423.18 2142.21,1404.28 "/>
<path clip-path="url(#clip920)" d="M319.172 1481.64 L335.492 1481.64 L335.492 1485.58 L313.547 1485.58 L313.547 1481.64 Q316.209 1478.89 320.793 1474.26 Q325.399 1469.61 326.58 1468.27 Q328.825 1465.74 329.705 1464.01 Q330.608 1462.25 330.608 1460.56 Q330.608 1457.8 328.663 1456.07 Q326.742 1454.33 323.64 1454.33 Q321.441 1454.33 318.987 1455.09 Q316.557 1455.86 313.779 1457.41 L313.779 1452.69 Q316.603 1451.55 319.057 1450.97 Q321.51 1450.39 323.547 1450.39 Q328.918 1450.39 332.112 1453.08 Q335.307 1455.77 335.307 1460.26 Q335.307 1462.39 334.496 1464.31 Q333.709 1466.2 331.603 1468.8 Q331.024 1469.47 327.922 1472.69 Q324.82 1475.88 319.172 1481.64 Z" fill="#000000" fill-rule="nonzero" fill-opacity="1" /><path clip-path="url(#clip920)" d="M630.477 1455.09 L618.671 1473.54 L630.477 1473.54 L630.477 1455.09 M629.25 1451.02 L635.129 1451.02 L635.129 1473.54 L640.06 1473.54 L640.06 1477.43 L635.129 1477.43 L635.129 1485.58 L630.477 1485.58 L630.477 1477.43 L614.875 1477.43 L614.875 1472.92 L629.25 1451.02 Z" fill="#000000" fill-rule="nonzero" fill-opacity="1" /><path clip-path="url(#clip920)" d="M930.821 1466.44 Q927.672 1466.44 925.821 1468.59 Q923.992 1470.74 923.992 1474.49 Q923.992 1478.22 925.821 1480.39 Q927.672 1482.55 930.821 1482.55 Q933.969 1482.55 935.797 1480.39 Q937.649 1478.22 937.649 1474.49 Q937.649 1470.74 935.797 1468.59 Q933.969 1466.44 930.821 1466.44 M940.103 1451.78 L940.103 1456.04 Q938.344 1455.21 936.538 1454.77 Q934.756 1454.33 932.996 1454.33 Q928.367 1454.33 925.913 1457.45 Q923.483 1460.58 923.135 1466.9 Q924.501 1464.89 926.561 1463.82 Q928.621 1462.73 931.098 1462.73 Q936.307 1462.73 939.316 1465.9 Q942.348 1469.05 942.348 1474.49 Q942.348 1479.82 939.2 1483.03 Q936.052 1486.25 930.821 1486.25 Q924.825 1486.25 921.654 1481.67 Q918.483 1477.06 918.483 1468.33 Q918.483 1460.14 922.371 1455.28 Q926.26 1450.39 932.811 1450.39 Q934.57 1450.39 936.353 1450.74 Q938.158 1451.09 940.103 1451.78 Z" fill="#000000" fill-rule="nonzero" fill-opacity="1" /><path clip-path="url(#clip920)" d="M1233.36 1469.17 Q1230.03 1469.17 1228.11 1470.95 Q1226.21 1472.73 1226.21 1475.86 Q1226.21 1478.98 1228.11 1480.77 Q1230.03 1482.55 1233.36 1482.55 Q1236.7 1482.55 1238.62 1480.77 Q1240.54 1478.96 1240.54 1475.86 Q1240.54 1472.73 1238.62 1470.95 Q1236.72 1469.17 1233.36 1469.17 M1228.69 1467.18 Q1225.68 1466.44 1223.99 1464.38 Q1222.32 1462.32 1222.32 1459.35 Q1222.32 1455.21 1225.26 1452.8 Q1228.22 1450.39 1233.36 1450.39 Q1238.53 1450.39 1241.47 1452.8 Q1244.4 1455.21 1244.4 1459.35 Q1244.4 1462.32 1242.72 1464.38 Q1241.05 1466.44 1238.06 1467.18 Q1241.44 1467.96 1243.32 1470.26 Q1245.22 1472.55 1245.22 1475.86 Q1245.22 1480.88 1242.14 1483.57 Q1239.08 1486.25 1233.36 1486.25 Q1227.65 1486.25 1224.57 1483.57 Q1221.51 1480.88 1221.51 1475.86 Q1221.51 1472.55 1223.41 1470.26 Q1225.31 1467.96 1228.69 1467.18 M1226.97 1459.79 Q1226.97 1462.48 1228.64 1463.98 Q1230.33 1465.49 1233.36 1465.49 Q1236.37 1465.49 1238.06 1463.98 Q1239.78 1462.48 1239.78 1459.79 Q1239.78 1457.11 1238.06 1455.6 Q1236.37 1454.1 1233.36 1454.1 Q1230.33 1454.1 1228.64 1455.6 Q1226.97 1457.11 1226.97 1459.79 Z" fill="#000000" fill-rule="nonzero" fill-opacity="1" /><path clip-path="url(#clip920)" d="M1511 1481.64 L1518.64 1481.64 L1518.64 1455.28 L1510.33 1456.95 L1510.33 1452.69 L1518.59 1451.02 L1523.27 1451.02 L1523.27 1481.64 L1530.91 1481.64 L1530.91 1485.58 L1511 1485.58 L1511 1481.64 Z" fill="#000000" fill-rule="nonzero" fill-opacity="1" /><path clip-path="url(#clip920)" d="M1550.35 1454.1 Q1546.74 1454.1 1544.91 1457.66 Q1543.11 1461.2 1543.11 1468.33 Q1543.11 1475.44 1544.91 1479.01 Q1546.74 1482.55 1550.35 1482.55 Q1553.98 1482.55 1555.79 1479.01 Q1557.62 1475.44 1557.62 1468.33 Q1557.62 1461.2 1555.79 1457.66 Q1553.98 1454.1 1550.35 1454.1 M1550.35 1450.39 Q1556.16 1450.39 1559.22 1455 Q1562.29 1459.58 1562.29 1468.33 Q1562.29 1477.06 1559.22 1481.67 Q1556.16 1486.25 1550.35 1486.25 Q1544.54 1486.25 1541.46 1481.67 Q1538.41 1477.06 1538.41 1468.33 Q1538.41 1459.58 1541.46 1455 Q1544.54 1450.39 1550.35 1450.39 Z" fill="#000000" fill-rule="nonzero" fill-opacity="1" /><path clip-path="url(#clip920)" d="M1814.75 1481.64 L1822.38 1481.64 L1822.38 1455.28 L1814.07 1456.95 L1814.07 1452.69 L1822.34 1451.02 L1827.01 1451.02 L1827.01 1481.64 L1834.65 1481.64 L1834.65 1485.58 L1814.75 1485.58 L1814.75 1481.64 Z" fill="#000000" fill-rule="nonzero" fill-opacity="1" /><path clip-path="url(#clip920)" d="M1848.12 1481.64 L1864.44 1481.64 L1864.44 1485.58 L1842.5 1485.58 L1842.5 1481.64 Q1845.16 1478.89 1849.75 1474.26 Q1854.35 1469.61 1855.53 1468.27 Q1857.78 1465.74 1858.66 1464.01 Q1859.56 1462.25 1859.56 1460.56 Q1859.56 1457.8 1857.62 1456.07 Q1855.69 1454.33 1852.59 1454.33 Q1850.39 1454.33 1847.94 1455.09 Q1845.51 1455.86 1842.73 1457.41 L1842.73 1452.69 Q1845.56 1451.55 1848.01 1450.97 Q1850.46 1450.39 1852.5 1450.39 Q1857.87 1450.39 1861.06 1453.08 Q1864.26 1455.77 1864.26 1460.26 Q1864.26 1462.39 1863.45 1464.31 Q1862.66 1466.2 1860.56 1468.8 Q1859.98 1469.47 1856.87 1472.69 Q1853.77 1475.88 1848.12 1481.64 Z" fill="#000000" fill-rule="nonzero" fill-opacity="1" /><path clip-path="url(#clip920)" d="M2116.65 1481.64 L2124.29 1481.64 L2124.29 1455.28 L2115.98 1456.95 L2115.98 1452.69 L2124.24 1451.02 L2128.92 1451.02 L2128.92 1481.64 L2136.56 1481.64 L2136.56 1485.58 L2116.65 1485.58 L2116.65 1481.64 Z" fill="#000000" fill-rule="nonzero" fill-opacity="1" /><path clip-path="url(#clip920)" d="M2158.85 1455.09 L2147.05 1473.54 L2158.85 1473.54 L2158.85 1455.09 M2157.62 1451.02 L2163.5 1451.02 L2163.5 1473.54 L2168.43 1473.54 L2168.43 1477.43 L2163.5 1477.43 L2163.5 1485.58 L2158.85 1485.58 L2158.85 1477.43 L2143.25 1477.43 L2143.25 1472.92 L2157.62 1451.02 Z" fill="#000000" fill-rule="nonzero" fill-opacity="1" /><path clip-path="url(#clip920)" d="M1099.65 1539.37 L1090.39 1539.37 L1087.72 1550 L1097.04 1550 L1099.65 1539.37 M1094.88 1521.26 L1091.57 1534.46 L1100.86 1534.46 L1104.2 1521.26 L1109.3 1521.26 L1106.02 1534.46 L1115.95 1534.46 L1115.95 1539.37 L1104.78 1539.37 L1102.17 1550 L1112.29 1550 L1112.29 1554.87 L1100.93 1554.87 L1097.62 1568.04 L1092.52 1568.04 L1095.8 1554.87 L1086.48 1554.87 L1083.2 1568.04 L1078.07 1568.04 L1081.38 1554.87 L1071.36 1554.87 L1071.36 1550 L1082.56 1550 L1085.23 1539.37 L1074.99 1539.37 L1074.99 1534.46 L1086.48 1534.46 L1089.72 1521.26 L1094.88 1521.26 Z" fill="#000000" fill-rule="nonzero" fill-opacity="1" /><path clip-path="url(#clip920)" d="M1160.32 1568.04 L1142.18 1520.52 L1148.89 1520.52 L1163.95 1560.53 L1179.03 1520.52 L1185.72 1520.52 L1167.61 1568.04 L1160.32 1568.04 Z" fill="#000000" fill-rule="nonzero" fill-opacity="1" /><path clip-path="url(#clip920)" d="M1203.54 1550.12 Q1196.44 1550.12 1193.71 1551.75 Q1190.97 1553.37 1190.97 1557.29 Q1190.97 1560.4 1193.01 1562.25 Q1195.07 1564.07 1198.61 1564.07 Q1203.48 1564.07 1206.41 1560.63 Q1209.37 1557.16 1209.37 1551.43 L1209.37 1550.12 L1203.54 1550.12 M1215.22 1547.71 L1215.22 1568.04 L1209.37 1568.04 L1209.37 1562.63 Q1207.36 1565.88 1204.37 1567.44 Q1201.38 1568.97 1197.05 1568.97 Q1191.57 1568.97 1188.33 1565.91 Q1185.11 1562.82 1185.11 1557.67 Q1185.11 1551.65 1189.12 1548.6 Q1193.16 1545.54 1201.15 1545.54 L1209.37 1545.54 L1209.37 1544.97 Q1209.37 1540.93 1206.69 1538.73 Q1204.05 1536.5 1199.24 1536.5 Q1196.19 1536.5 1193.29 1537.23 Q1190.4 1537.97 1187.72 1539.43 L1187.72 1534.02 Q1190.94 1532.78 1193.96 1532.17 Q1196.98 1531.54 1199.85 1531.54 Q1207.58 1531.54 1211.4 1535.55 Q1215.22 1539.56 1215.22 1547.71 Z" fill="#000000" fill-rule="nonzero" fill-opacity="1" /><path clip-path="url(#clip920)" d="M1247.94 1537.87 Q1246.96 1537.3 1245.78 1537.04 Q1244.63 1536.76 1243.23 1536.76 Q1238.27 1536.76 1235.59 1540 Q1232.95 1543.22 1232.95 1549.27 L1232.95 1568.04 L1227.06 1568.04 L1227.06 1532.4 L1232.95 1532.4 L1232.95 1537.93 Q1234.8 1534.69 1237.76 1533.13 Q1240.72 1531.54 1244.95 1531.54 Q1245.55 1531.54 1246.29 1531.63 Q1247.02 1531.7 1247.91 1531.85 L1247.94 1537.87 Z" fill="#000000" fill-rule="nonzero" fill-opacity="1" /><path clip-path="url(#clip920)" d="M1254.08 1532.4 L1259.94 1532.4 L1259.94 1568.04 L1254.08 1568.04 L1254.08 1532.4 M1254.08 1518.52 L1259.94 1518.52 L1259.94 1525.93 L1254.08 1525.93 L1254.08 1518.52 Z" fill="#000000" fill-rule="nonzero" fill-opacity="1" /><path clip-path="url(#clip920)" d="M1288.4 1550.12 Q1281.3 1550.12 1278.56 1551.75 Q1275.82 1553.37 1275.82 1557.29 Q1275.82 1560.4 1277.86 1562.25 Q1279.93 1564.07 1283.46 1564.07 Q1288.33 1564.07 1291.26 1560.63 Q1294.22 1557.16 1294.22 1551.43 L1294.22 1550.12 L1288.4 1550.12 M1300.08 1547.71 L1300.08 1568.04 L1294.22 1568.04 L1294.22 1562.63 Q1292.22 1565.88 1289.22 1567.44 Q1286.23 1568.97 1281.9 1568.97 Q1276.43 1568.97 1273.18 1565.91 Q1269.97 1562.82 1269.97 1557.67 Q1269.97 1551.65 1273.98 1548.6 Q1278.02 1545.54 1286.01 1545.54 L1294.22 1545.54 L1294.22 1544.97 Q1294.22 1540.93 1291.55 1538.73 Q1288.91 1536.5 1284.1 1536.5 Q1281.04 1536.5 1278.15 1537.23 Q1275.25 1537.97 1272.58 1539.43 L1272.58 1534.02 Q1275.79 1532.78 1278.82 1532.17 Q1281.84 1531.54 1284.7 1531.54 Q1292.44 1531.54 1296.26 1535.55 Q1300.08 1539.56 1300.08 1547.71 Z" fill="#000000" fill-rule="nonzero" fill-opacity="1" /><path clip-path="url(#clip920)" d="M1337.73 1550.25 Q1337.73 1543.79 1335.06 1540.13 Q1332.41 1536.44 1327.77 1536.44 Q1323.12 1536.44 1320.45 1540.13 Q1317.81 1543.79 1317.81 1550.25 Q1317.81 1556.71 1320.45 1560.4 Q1323.12 1564.07 1327.77 1564.07 Q1332.41 1564.07 1335.06 1560.4 Q1337.73 1556.71 1337.73 1550.25 M1317.81 1537.81 Q1319.65 1534.62 1322.45 1533.1 Q1325.29 1531.54 1329.2 1531.54 Q1335.69 1531.54 1339.74 1536.69 Q1343.81 1541.85 1343.81 1550.25 Q1343.81 1558.65 1339.74 1563.81 Q1335.69 1568.97 1329.2 1568.97 Q1325.29 1568.97 1322.45 1567.44 Q1319.65 1565.88 1317.81 1562.7 L1317.81 1568.04 L1311.92 1568.04 L1311.92 1518.52 L1317.81 1518.52 L1317.81 1537.81 Z" fill="#000000" fill-rule="nonzero" fill-opacity="1" /><path clip-path="url(#clip920)" d="M1353.52 1518.52 L1359.37 1518.52 L1359.37 1568.04 L1353.52 1568.04 L1353.52 1518.52 Z" fill="#000000" fill-rule="nonzero" fill-opacity="1" /><path clip-path="url(#clip920)" d="M1402.12 1548.76 L1402.12 1551.62 L1375.19 1551.62 Q1375.57 1557.67 1378.82 1560.85 Q1382.1 1564 1387.92 1564 Q1391.3 1564 1394.45 1563.17 Q1397.63 1562.35 1400.75 1560.69 L1400.75 1566.23 Q1397.6 1567.57 1394.29 1568.27 Q1390.98 1568.97 1387.57 1568.97 Q1379.04 1568.97 1374.05 1564 Q1369.08 1559.04 1369.08 1550.57 Q1369.08 1541.82 1373.79 1536.69 Q1378.53 1531.54 1386.56 1531.54 Q1393.75 1531.54 1397.92 1536.18 Q1402.12 1540.8 1402.12 1548.76 M1396.26 1547.04 Q1396.2 1542.23 1393.56 1539.37 Q1390.95 1536.5 1386.62 1536.5 Q1381.72 1536.5 1378.76 1539.27 Q1375.83 1542.04 1375.38 1547.07 L1396.26 1547.04 Z" fill="#000000" fill-rule="nonzero" fill-opacity="1" /><path clip-path="url(#clip920)" d="M1434.46 1533.45 L1434.46 1538.98 Q1431.97 1537.71 1429.3 1537.07 Q1426.63 1536.44 1423.76 1536.44 Q1419.4 1536.44 1417.21 1537.77 Q1415.04 1539.11 1415.04 1541.79 Q1415.04 1543.82 1416.6 1545 Q1418.16 1546.15 1422.87 1547.2 L1424.88 1547.64 Q1431.11 1548.98 1433.72 1551.43 Q1436.37 1553.85 1436.37 1558.21 Q1436.37 1563.17 1432.42 1566.07 Q1428.51 1568.97 1421.63 1568.97 Q1418.77 1568.97 1415.65 1568.39 Q1412.56 1567.85 1409.12 1566.74 L1409.12 1560.69 Q1412.37 1562.38 1415.52 1563.24 Q1418.67 1564.07 1421.76 1564.07 Q1425.9 1564.07 1428.12 1562.66 Q1430.35 1561.23 1430.35 1558.65 Q1430.35 1556.27 1428.73 1554.99 Q1427.14 1553.72 1421.69 1552.54 L1419.66 1552.07 Q1414.21 1550.92 1411.8 1548.56 Q1409.38 1546.18 1409.38 1542.04 Q1409.38 1537.01 1412.94 1534.27 Q1416.51 1531.54 1423.06 1531.54 Q1426.31 1531.54 1429.17 1532.01 Q1432.04 1532.49 1434.46 1533.45 Z" fill="#000000" fill-rule="nonzero" fill-opacity="1" /><path clip-path="url(#clip920)" d="M1480.48 1518.58 Q1476.22 1525.9 1474.15 1533.06 Q1472.08 1540.23 1472.08 1547.58 Q1472.08 1554.93 1474.15 1562.16 Q1476.25 1569.35 1480.48 1576.64 L1475.39 1576.64 Q1470.61 1569.16 1468.23 1561.93 Q1465.87 1554.71 1465.87 1547.58 Q1465.87 1540.48 1468.23 1533.29 Q1470.58 1526.09 1475.39 1518.58 L1480.48 1518.58 Z" fill="#000000" fill-rule="nonzero" fill-opacity="1" /><path clip-path="url(#clip920)" d="M1521.48 1546.53 L1521.48 1568.04 L1515.62 1568.04 L1515.62 1546.72 Q1515.62 1541.66 1513.65 1539.14 Q1511.67 1536.63 1507.73 1536.63 Q1502.98 1536.63 1500.25 1539.65 Q1497.51 1542.68 1497.51 1547.9 L1497.51 1568.04 L1491.62 1568.04 L1491.62 1532.4 L1497.51 1532.4 L1497.51 1537.93 Q1499.61 1534.72 1502.44 1533.13 Q1505.31 1531.54 1509.03 1531.54 Q1515.17 1531.54 1518.33 1535.36 Q1521.48 1539.14 1521.48 1546.53 Z" fill="#000000" fill-rule="nonzero" fill-opacity="1" /><path clip-path="url(#clip920)" d="M1532.23 1518.58 L1537.33 1518.58 Q1542.1 1526.09 1544.46 1533.29 Q1546.84 1540.48 1546.84 1547.58 Q1546.84 1554.71 1544.46 1561.93 Q1542.1 1569.16 1537.33 1576.64 L1532.23 1576.64 Q1536.47 1569.35 1538.54 1562.16 Q1540.64 1554.93 1540.64 1547.58 Q1540.64 1540.23 1538.54 1533.06 Q1536.47 1525.9 1532.23 1518.58 Z" fill="#000000" fill-rule="nonzero" fill-opacity="1" /><polyline clip-path="url(#clip922)" style="stroke:#000000; stroke-linecap:round; stroke-linejoin:round; stroke-width:2; stroke-opacity:0.1; fill:none" points="265.445,1397.7 2352.76,1397.7 "/>
<polyline clip-path="url(#clip922)" style="stroke:#000000; stroke-linecap:round; stroke-linejoin:round; stroke-width:2; stroke-opacity:0.1; fill:none" points="265.445,1142.85 2352.76,1142.85 "/>
<polyline clip-path="url(#clip922)" style="stroke:#000000; stroke-linecap:round; stroke-linejoin:round; stroke-width:2; stroke-opacity:0.1; fill:none" points="265.445,888.006 2352.76,888.006 "/>
<polyline clip-path="url(#clip922)" style="stroke:#000000; stroke-linecap:round; stroke-linejoin:round; stroke-width:2; stroke-opacity:0.1; fill:none" points="265.445,633.161 2352.76,633.161 "/>
<polyline clip-path="url(#clip922)" style="stroke:#000000; stroke-linecap:round; stroke-linejoin:round; stroke-width:2; stroke-opacity:0.1; fill:none" points="265.445,378.317 2352.76,378.317 "/>
<polyline clip-path="url(#clip922)" style="stroke:#000000; stroke-linecap:round; stroke-linejoin:round; stroke-width:2; stroke-opacity:0.1; fill:none" points="265.445,123.472 2352.76,123.472 "/>
<polyline clip-path="url(#clip920)" style="stroke:#000000; stroke-linecap:round; stroke-linejoin:round; stroke-width:4; stroke-opacity:1; fill:none" points="265.445,1423.18 265.445,123.472 "/>
<polyline clip-path="url(#clip920)" style="stroke:#000000; stroke-linecap:round; stroke-linejoin:round; stroke-width:4; stroke-opacity:1; fill:none" points="265.445,1397.7 284.342,1397.7 "/>
<polyline clip-path="url(#clip920)" style="stroke:#000000; stroke-linecap:round; stroke-linejoin:round; stroke-width:4; stroke-opacity:1; fill:none" points="265.445,1142.85 284.342,1142.85 "/>
<polyline clip-path="url(#clip920)" style="stroke:#000000; stroke-linecap:round; stroke-linejoin:round; stroke-width:4; stroke-opacity:1; fill:none" points="265.445,888.006 284.342,888.006 "/>
<polyline clip-path="url(#clip920)" style="stroke:#000000; stroke-linecap:round; stroke-linejoin:round; stroke-width:4; stroke-opacity:1; fill:none" points="265.445,633.161 284.342,633.161 "/>
<polyline clip-path="url(#clip920)" style="stroke:#000000; stroke-linecap:round; stroke-linejoin:round; stroke-width:4; stroke-opacity:1; fill:none" points="265.445,378.317 284.342,378.317 "/>
<polyline clip-path="url(#clip920)" style="stroke:#000000; stroke-linecap:round; stroke-linejoin:round; stroke-width:4; stroke-opacity:1; fill:none" points="265.445,123.472 284.342,123.472 "/>
<path clip-path="url(#clip920)" d="M217.5 1383.49 Q213.889 1383.49 212.061 1387.06 Q210.255 1390.6 210.255 1397.73 Q210.255 1404.84 212.061 1408.4 Q213.889 1411.94 217.5 1411.94 Q221.135 1411.94 222.94 1408.4 Q224.769 1404.84 224.769 1397.73 Q224.769 1390.6 222.94 1387.06 Q221.135 1383.49 217.5 1383.49 M217.5 1379.79 Q223.31 1379.79 226.366 1384.4 Q229.445 1388.98 229.445 1397.73 Q229.445 1406.46 226.366 1411.06 Q223.31 1415.65 217.5 1415.65 Q211.69 1415.65 208.612 1411.06 Q205.556 1406.46 205.556 1397.73 Q205.556 1388.98 208.612 1384.4 Q211.69 1379.79 217.5 1379.79 Z" fill="#000000" fill-rule="nonzero" fill-opacity="1" /><path clip-path="url(#clip920)" d="M117.825 1156.2 L125.464 1156.2 L125.464 1129.83 L117.154 1131.5 L117.154 1127.24 L125.418 1125.57 L130.093 1125.57 L130.093 1156.2 L137.732 1156.2 L137.732 1160.13 L117.825 1160.13 L117.825 1156.2 Z" fill="#000000" fill-rule="nonzero" fill-opacity="1" /><path clip-path="url(#clip920)" d="M157.177 1128.65 Q153.566 1128.65 151.737 1132.21 Q149.931 1135.76 149.931 1142.89 Q149.931 1149.99 151.737 1153.56 Q153.566 1157.1 157.177 1157.1 Q160.811 1157.1 162.616 1153.56 Q164.445 1149.99 164.445 1142.89 Q164.445 1135.76 162.616 1132.21 Q160.811 1128.65 157.177 1128.65 M157.177 1124.95 Q162.987 1124.95 166.042 1129.55 Q169.121 1134.14 169.121 1142.89 Q169.121 1151.61 166.042 1156.22 Q162.987 1160.8 157.177 1160.8 Q151.366 1160.8 148.288 1156.22 Q145.232 1151.61 145.232 1142.89 Q145.232 1134.14 148.288 1129.55 Q151.366 1124.95 157.177 1124.95 Z" fill="#000000" fill-rule="nonzero" fill-opacity="1" /><path clip-path="url(#clip920)" d="M187.338 1128.65 Q183.727 1128.65 181.899 1132.21 Q180.093 1135.76 180.093 1142.89 Q180.093 1149.99 181.899 1153.56 Q183.727 1157.1 187.338 1157.1 Q190.973 1157.1 192.778 1153.56 Q194.607 1149.99 194.607 1142.89 Q194.607 1135.76 192.778 1132.21 Q190.973 1128.65 187.338 1128.65 M187.338 1124.95 Q193.149 1124.95 196.204 1129.55 Q199.283 1134.14 199.283 1142.89 Q199.283 1151.61 196.204 1156.22 Q193.149 1160.8 187.338 1160.8 Q181.528 1160.8 178.45 1156.22 Q175.394 1151.61 175.394 1142.89 Q175.394 1134.14 178.45 1129.55 Q181.528 1124.95 187.338 1124.95 Z" fill="#000000" fill-rule="nonzero" fill-opacity="1" /><path clip-path="url(#clip920)" d="M217.5 1128.65 Q213.889 1128.65 212.061 1132.21 Q210.255 1135.76 210.255 1142.89 Q210.255 1149.99 212.061 1153.56 Q213.889 1157.1 217.5 1157.1 Q221.135 1157.1 222.94 1153.56 Q224.769 1149.99 224.769 1142.89 Q224.769 1135.76 222.94 1132.21 Q221.135 1128.65 217.5 1128.65 M217.5 1124.95 Q223.31 1124.95 226.366 1129.55 Q229.445 1134.14 229.445 1142.89 Q229.445 1151.61 226.366 1156.22 Q223.31 1160.8 217.5 1160.8 Q211.69 1160.8 208.612 1156.22 Q205.556 1151.61 205.556 1142.89 Q205.556 1134.14 208.612 1129.55 Q211.69 1124.95 217.5 1124.95 Z" fill="#000000" fill-rule="nonzero" fill-opacity="1" /><path clip-path="url(#clip920)" d="M121.043 901.351 L137.362 901.351 L137.362 905.286 L115.418 905.286 L115.418 901.351 Q118.08 898.596 122.663 893.967 Q127.269 889.314 128.45 887.971 Q130.695 885.448 131.575 883.712 Q132.478 881.953 132.478 880.263 Q132.478 877.508 130.533 875.772 Q128.612 874.036 125.51 874.036 Q123.311 874.036 120.857 874.8 Q118.427 875.564 115.649 877.115 L115.649 872.393 Q118.473 871.258 120.927 870.68 Q123.38 870.101 125.418 870.101 Q130.788 870.101 133.982 872.786 Q137.177 875.471 137.177 879.962 Q137.177 882.092 136.367 884.013 Q135.579 885.911 133.473 888.504 Q132.894 889.175 129.792 892.393 Q126.691 895.587 121.043 901.351 Z" fill="#000000" fill-rule="nonzero" fill-opacity="1" /><path clip-path="url(#clip920)" d="M157.177 873.805 Q153.566 873.805 151.737 877.37 Q149.931 880.911 149.931 888.041 Q149.931 895.147 151.737 898.712 Q153.566 902.254 157.177 902.254 Q160.811 902.254 162.616 898.712 Q164.445 895.147 164.445 888.041 Q164.445 880.911 162.616 877.37 Q160.811 873.805 157.177 873.805 M157.177 870.101 Q162.987 870.101 166.042 874.708 Q169.121 879.291 169.121 888.041 Q169.121 896.768 166.042 901.374 Q162.987 905.957 157.177 905.957 Q151.366 905.957 148.288 901.374 Q145.232 896.768 145.232 888.041 Q145.232 879.291 148.288 874.708 Q151.366 870.101 157.177 870.101 Z" fill="#000000" fill-rule="nonzero" fill-opacity="1" /><path clip-path="url(#clip920)" d="M187.338 873.805 Q183.727 873.805 181.899 877.37 Q180.093 880.911 180.093 888.041 Q180.093 895.147 181.899 898.712 Q183.727 902.254 187.338 902.254 Q190.973 902.254 192.778 898.712 Q194.607 895.147 194.607 888.041 Q194.607 880.911 192.778 877.37 Q190.973 873.805 187.338 873.805 M187.338 870.101 Q193.149 870.101 196.204 874.708 Q199.283 879.291 199.283 888.041 Q199.283 896.768 196.204 901.374 Q193.149 905.957 187.338 905.957 Q181.528 905.957 178.45 901.374 Q175.394 896.768 175.394 888.041 Q175.394 879.291 178.45 874.708 Q181.528 870.101 187.338 870.101 Z" fill="#000000" fill-rule="nonzero" fill-opacity="1" /><path clip-path="url(#clip920)" d="M217.5 873.805 Q213.889 873.805 212.061 877.37 Q210.255 880.911 210.255 888.041 Q210.255 895.147 212.061 898.712 Q213.889 902.254 217.5 902.254 Q221.135 902.254 222.94 898.712 Q224.769 895.147 224.769 888.041 Q224.769 880.911 222.94 877.37 Q221.135 873.805 217.5 873.805 M217.5 870.101 Q223.31 870.101 226.366 874.708 Q229.445 879.291 229.445 888.041 Q229.445 896.768 226.366 901.374 Q223.31 905.957 217.5 905.957 Q211.69 905.957 208.612 901.374 Q205.556 896.768 205.556 888.041 Q205.556 879.291 208.612 874.708 Q211.69 870.101 217.5 870.101 Z" fill="#000000" fill-rule="nonzero" fill-opacity="1" /><path clip-path="url(#clip920)" d="M131.181 631.807 Q134.538 632.525 136.413 634.793 Q138.311 637.062 138.311 640.395 Q138.311 645.511 134.792 648.312 Q131.274 651.113 124.793 651.113 Q122.617 651.113 120.302 650.673 Q118.01 650.256 115.556 649.4 L115.556 644.886 Q117.501 646.02 119.816 646.599 Q122.13 647.178 124.654 647.178 Q129.052 647.178 131.343 645.441 Q133.658 643.705 133.658 640.395 Q133.658 637.34 131.505 635.627 Q129.376 633.891 125.556 633.891 L121.529 633.891 L121.529 630.048 L125.742 630.048 Q129.191 630.048 131.019 628.682 Q132.848 627.293 132.848 624.701 Q132.848 622.039 130.95 620.627 Q129.075 619.192 125.556 619.192 Q123.635 619.192 121.436 619.608 Q119.237 620.025 116.598 620.905 L116.598 616.738 Q119.26 615.997 121.575 615.627 Q123.913 615.256 125.973 615.256 Q131.297 615.256 134.399 617.687 Q137.501 620.094 137.501 624.215 Q137.501 627.085 135.857 629.076 Q134.214 631.043 131.181 631.807 Z" fill="#000000" fill-rule="nonzero" fill-opacity="1" /><path clip-path="url(#clip920)" d="M157.177 618.96 Q153.566 618.96 151.737 622.525 Q149.931 626.067 149.931 633.196 Q149.931 640.303 151.737 643.867 Q153.566 647.409 157.177 647.409 Q160.811 647.409 162.616 643.867 Q164.445 640.303 164.445 633.196 Q164.445 626.067 162.616 622.525 Q160.811 618.96 157.177 618.96 M157.177 615.256 Q162.987 615.256 166.042 619.863 Q169.121 624.446 169.121 633.196 Q169.121 641.923 166.042 646.529 Q162.987 651.113 157.177 651.113 Q151.366 651.113 148.288 646.529 Q145.232 641.923 145.232 633.196 Q145.232 624.446 148.288 619.863 Q151.366 615.256 157.177 615.256 Z" fill="#000000" fill-rule="nonzero" fill-opacity="1" /><path clip-path="url(#clip920)" d="M187.338 618.96 Q183.727 618.96 181.899 622.525 Q180.093 626.067 180.093 633.196 Q180.093 640.303 181.899 643.867 Q183.727 647.409 187.338 647.409 Q190.973 647.409 192.778 643.867 Q194.607 640.303 194.607 633.196 Q194.607 626.067 192.778 622.525 Q190.973 618.96 187.338 618.96 M187.338 615.256 Q193.149 615.256 196.204 619.863 Q199.283 624.446 199.283 633.196 Q199.283 641.923 196.204 646.529 Q193.149 651.113 187.338 651.113 Q181.528 651.113 178.45 646.529 Q175.394 641.923 175.394 633.196 Q175.394 624.446 178.45 619.863 Q181.528 615.256 187.338 615.256 Z" fill="#000000" fill-rule="nonzero" fill-opacity="1" /><path clip-path="url(#clip920)" d="M217.5 618.96 Q213.889 618.96 212.061 622.525 Q210.255 626.067 210.255 633.196 Q210.255 640.303 212.061 643.867 Q213.889 647.409 217.5 647.409 Q221.135 647.409 222.94 643.867 Q224.769 640.303 224.769 633.196 Q224.769 626.067 222.94 622.525 Q221.135 618.96 217.5 618.96 M217.5 615.256 Q223.31 615.256 226.366 619.863 Q229.445 624.446 229.445 633.196 Q229.445 641.923 226.366 646.529 Q223.31 651.113 217.5 651.113 Q211.69 651.113 208.612 646.529 Q205.556 641.923 205.556 633.196 Q205.556 624.446 208.612 619.863 Q211.69 615.256 217.5 615.256 Z" fill="#000000" fill-rule="nonzero" fill-opacity="1" /><path clip-path="url(#clip920)" d="M129.862 365.111 L118.056 383.56 L129.862 383.56 L129.862 365.111 M128.635 361.037 L134.515 361.037 L134.515 383.56 L139.445 383.56 L139.445 387.449 L134.515 387.449 L134.515 395.597 L129.862 395.597 L129.862 387.449 L114.26 387.449 L114.26 382.935 L128.635 361.037 Z" fill="#000000" fill-rule="nonzero" fill-opacity="1" /><path clip-path="url(#clip920)" d="M157.177 364.115 Q153.566 364.115 151.737 367.68 Q149.931 371.222 149.931 378.351 Q149.931 385.458 151.737 389.023 Q153.566 392.564 157.177 392.564 Q160.811 392.564 162.616 389.023 Q164.445 385.458 164.445 378.351 Q164.445 371.222 162.616 367.68 Q160.811 364.115 157.177 364.115 M157.177 360.412 Q162.987 360.412 166.042 365.018 Q169.121 369.602 169.121 378.351 Q169.121 387.078 166.042 391.685 Q162.987 396.268 157.177 396.268 Q151.366 396.268 148.288 391.685 Q145.232 387.078 145.232 378.351 Q145.232 369.602 148.288 365.018 Q151.366 360.412 157.177 360.412 Z" fill="#000000" fill-rule="nonzero" fill-opacity="1" /><path clip-path="url(#clip920)" d="M187.338 364.115 Q183.727 364.115 181.899 367.68 Q180.093 371.222 180.093 378.351 Q180.093 385.458 181.899 389.023 Q183.727 392.564 187.338 392.564 Q190.973 392.564 192.778 389.023 Q194.607 385.458 194.607 378.351 Q194.607 371.222 192.778 367.68 Q190.973 364.115 187.338 364.115 M187.338 360.412 Q193.149 360.412 196.204 365.018 Q199.283 369.602 199.283 378.351 Q199.283 387.078 196.204 391.685 Q193.149 396.268 187.338 396.268 Q181.528 396.268 178.45 391.685 Q175.394 387.078 175.394 378.351 Q175.394 369.602 178.45 365.018 Q181.528 360.412 187.338 360.412 Z" fill="#000000" fill-rule="nonzero" fill-opacity="1" /><path clip-path="url(#clip920)" d="M217.5 364.115 Q213.889 364.115 212.061 367.68 Q210.255 371.222 210.255 378.351 Q210.255 385.458 212.061 389.023 Q213.889 392.564 217.5 392.564 Q221.135 392.564 222.94 389.023 Q224.769 385.458 224.769 378.351 Q224.769 371.222 222.94 367.68 Q221.135 364.115 217.5 364.115 M217.5 360.412 Q223.31 360.412 226.366 365.018 Q229.445 369.602 229.445 378.351 Q229.445 387.078 226.366 391.685 Q223.31 396.268 217.5 396.268 Q211.69 396.268 208.612 391.685 Q205.556 387.078 205.556 378.351 Q205.556 369.602 208.612 365.018 Q211.69 360.412 217.5 360.412 Z" fill="#000000" fill-rule="nonzero" fill-opacity="1" /><path clip-path="url(#clip920)" d="M117.061 106.192 L135.417 106.192 L135.417 110.127 L121.343 110.127 L121.343 118.599 Q122.362 118.252 123.38 118.09 Q124.399 117.905 125.418 117.905 Q131.205 117.905 134.584 121.076 Q137.964 124.248 137.964 129.664 Q137.964 135.243 134.492 138.345 Q131.019 141.423 124.7 141.423 Q122.524 141.423 120.255 141.053 Q118.01 140.683 115.603 139.942 L115.603 135.243 Q117.686 136.377 119.908 136.933 Q122.13 137.488 124.607 137.488 Q128.612 137.488 130.95 135.382 Q133.288 133.275 133.288 129.664 Q133.288 126.053 130.95 123.947 Q128.612 121.84 124.607 121.84 Q122.732 121.84 120.857 122.257 Q119.006 122.674 117.061 123.553 L117.061 106.192 Z" fill="#000000" fill-rule="nonzero" fill-opacity="1" /><path clip-path="url(#clip920)" d="M157.177 109.271 Q153.566 109.271 151.737 112.836 Q149.931 116.377 149.931 123.507 Q149.931 130.613 151.737 134.178 Q153.566 137.72 157.177 137.72 Q160.811 137.72 162.616 134.178 Q164.445 130.613 164.445 123.507 Q164.445 116.377 162.616 112.836 Q160.811 109.271 157.177 109.271 M157.177 105.567 Q162.987 105.567 166.042 110.174 Q169.121 114.757 169.121 123.507 Q169.121 132.234 166.042 136.84 Q162.987 141.423 157.177 141.423 Q151.366 141.423 148.288 136.84 Q145.232 132.234 145.232 123.507 Q145.232 114.757 148.288 110.174 Q151.366 105.567 157.177 105.567 Z" fill="#000000" fill-rule="nonzero" fill-opacity="1" /><path clip-path="url(#clip920)" d="M187.338 109.271 Q183.727 109.271 181.899 112.836 Q180.093 116.377 180.093 123.507 Q180.093 130.613 181.899 134.178 Q183.727 137.72 187.338 137.72 Q190.973 137.72 192.778 134.178 Q194.607 130.613 194.607 123.507 Q194.607 116.377 192.778 112.836 Q190.973 109.271 187.338 109.271 M187.338 105.567 Q193.149 105.567 196.204 110.174 Q199.283 114.757 199.283 123.507 Q199.283 132.234 196.204 136.84 Q193.149 141.423 187.338 141.423 Q181.528 141.423 178.45 136.84 Q175.394 132.234 175.394 123.507 Q175.394 114.757 178.45 110.174 Q181.528 105.567 187.338 105.567 Z" fill="#000000" fill-rule="nonzero" fill-opacity="1" /><path clip-path="url(#clip920)" d="M217.5 109.271 Q213.889 109.271 212.061 112.836 Q210.255 116.377 210.255 123.507 Q210.255 130.613 212.061 134.178 Q213.889 137.72 217.5 137.72 Q221.135 137.72 222.94 134.178 Q224.769 130.613 224.769 123.507 Q224.769 116.377 222.94 112.836 Q221.135 109.271 217.5 109.271 M217.5 105.567 Q223.31 105.567 226.366 110.174 Q229.445 114.757 229.445 123.507 Q229.445 132.234 226.366 136.84 Q223.31 141.423 217.5 141.423 Q211.69 141.423 208.612 136.84 Q205.556 132.234 205.556 123.507 Q205.556 114.757 208.612 110.174 Q211.69 105.567 217.5 105.567 Z" fill="#000000" fill-rule="nonzero" fill-opacity="1" /><path clip-path="url(#clip920)" d="M18.0438 1029.08 L24.314 1029.08 Q22.5634 1032.74 21.704 1035.99 Q20.8447 1039.24 20.8447 1042.26 Q20.8447 1047.51 22.8817 1050.38 Q24.9187 1053.21 28.6745 1053.21 Q31.8255 1053.21 33.4488 1051.33 Q35.0402 1049.42 36.0269 1044.14 L36.8226 1040.26 Q38.1912 1033.06 41.6605 1029.66 Q45.098 1026.22 50.8908 1026.22 Q57.7976 1026.22 61.3624 1030.87 Q64.9272 1035.48 64.9272 1044.43 Q64.9272 1047.8 64.1633 1051.62 Q63.3994 1055.41 61.9035 1059.48 L55.2831 1059.48 Q57.4793 1055.57 58.5933 1051.81 Q59.7073 1048.05 59.7073 1044.43 Q59.7073 1038.92 57.543 1035.93 Q55.3786 1032.94 51.3682 1032.94 Q47.8671 1032.94 45.8937 1035.1 Q43.9204 1037.23 42.9337 1042.13 L42.1698 1046.05 Q40.7375 1053.24 37.682 1056.46 Q34.6264 1059.67 29.1837 1059.67 Q22.8817 1059.67 19.2532 1055.25 Q15.6248 1050.79 15.6248 1042.99 Q15.6248 1039.65 16.2295 1036.18 Q16.8343 1032.71 18.0438 1029.08 Z" fill="#000000" fill-rule="nonzero" fill-opacity="1" /><path clip-path="url(#clip920)" d="M44.7161 985.956 L47.5806 985.956 L47.5806 1012.88 Q53.6281 1012.5 56.8109 1009.25 Q59.9619 1005.98 59.9619 1000.15 Q59.9619 996.778 59.1344 993.627 Q58.3069 990.444 56.6518 987.325 L62.1899 987.325 Q63.5267 990.476 64.227 993.786 Q64.9272 997.096 64.9272 1000.5 Q64.9272 1009.03 59.9619 1014.03 Q54.9967 1018.99 46.5303 1018.99 Q37.7774 1018.99 32.6531 1014.28 Q27.4968 1009.54 27.4968 1001.52 Q27.4968 994.327 32.1438 990.158 Q36.7589 985.956 44.7161 985.956 M42.9973 991.813 Q38.1912 991.877 35.3266 994.518 Q32.4621 997.128 32.4621 1001.46 Q32.4621 1006.36 35.2312 1009.32 Q38.0002 1012.25 43.0292 1012.69 L42.9973 991.813 Z" fill="#000000" fill-rule="nonzero" fill-opacity="1" /><path clip-path="url(#clip920)" d="M29.7248 950.69 L35.1993 950.69 Q33.8307 953.173 33.1623 955.688 Q32.4621 958.17 32.4621 960.716 Q32.4621 966.414 36.0905 969.565 Q39.6872 972.716 46.212 972.716 Q52.7369 972.716 56.3653 969.565 Q59.9619 966.414 59.9619 960.716 Q59.9619 958.17 59.2935 955.688 Q58.5933 953.173 57.2247 950.69 L62.6355 950.69 Q63.7814 953.141 64.3543 955.783 Q64.9272 958.393 64.9272 961.353 Q64.9272 969.406 59.8664 974.148 Q54.8057 978.891 46.212 978.891 Q37.491 978.891 32.4939 974.116 Q27.4968 969.31 27.4968 960.971 Q27.4968 958.266 28.0697 955.688 Q28.6108 953.109 29.7248 950.69 Z" fill="#000000" fill-rule="nonzero" fill-opacity="1" /><path clip-path="url(#clip920)" d="M46.0847 924.305 Q46.0847 931.402 47.7079 934.14 Q49.3312 936.877 53.2461 936.877 Q56.3653 936.877 58.2114 934.84 Q60.0256 932.771 60.0256 929.238 Q60.0256 924.368 56.5881 921.44 Q53.1188 918.48 47.3897 918.48 L46.0847 918.48 L46.0847 924.305 M43.6657 912.624 L64.0042 912.624 L64.0042 918.48 L58.5933 918.48 Q61.8398 920.485 63.3994 923.477 Q64.9272 926.469 64.9272 930.798 Q64.9272 936.272 61.8716 939.519 Q58.7843 942.733 53.6281 942.733 Q47.6125 942.733 44.5569 938.723 Q41.5014 934.681 41.5014 926.692 L41.5014 918.48 L40.9285 918.48 Q36.8862 918.48 34.6901 921.154 Q32.4621 923.795 32.4621 928.601 Q32.4621 931.657 33.1941 934.553 Q33.9262 937.45 35.3903 940.123 L29.9795 940.123 Q28.7381 936.909 28.1334 933.885 Q27.4968 930.861 27.4968 927.997 Q27.4968 920.262 31.5072 916.443 Q35.5176 912.624 43.6657 912.624 Z" fill="#000000" fill-rule="nonzero" fill-opacity="1" /><path clip-path="url(#clip920)" d="M42.4881 870.928 L64.0042 870.928 L64.0042 876.785 L42.679 876.785 Q37.6183 876.785 35.1038 878.758 Q32.5894 880.731 32.5894 884.678 Q32.5894 889.421 35.6131 892.158 Q38.6368 894.895 43.8567 894.895 L64.0042 894.895 L64.0042 900.783 L28.3562 900.783 L28.3562 894.895 L33.8944 894.895 Q30.6797 892.794 29.0883 889.962 Q27.4968 887.097 27.4968 883.373 Q27.4968 877.23 31.3163 874.079 Q35.1038 870.928 42.4881 870.928 Z" fill="#000000" fill-rule="nonzero" fill-opacity="1" /><path clip-path="url(#clip920)" d="M18.2347 853.454 L28.3562 853.454 L28.3562 841.391 L32.9077 841.391 L32.9077 853.454 L52.2594 853.454 Q56.6199 853.454 57.8613 852.277 Q59.1026 851.067 59.1026 847.407 L59.1026 841.391 L64.0042 841.391 L64.0042 847.407 Q64.0042 854.186 61.4897 856.764 Q58.9434 859.343 52.2594 859.343 L32.9077 859.343 L32.9077 863.639 L28.3562 863.639 L28.3562 859.343 L18.2347 859.343 L18.2347 853.454 Z" fill="#000000" fill-rule="nonzero" fill-opacity="1" /><path clip-path="url(#clip920)" d="M33.7671 789.511 L14.479 789.511 L14.479 783.654 L64.0042 783.654 L64.0042 789.511 L58.657 789.511 Q61.8398 791.357 63.3994 794.19 Q64.9272 796.99 64.9272 800.937 Q64.9272 807.398 59.771 811.472 Q54.6147 815.515 46.212 815.515 Q37.8093 815.515 32.6531 811.472 Q27.4968 807.398 27.4968 800.937 Q27.4968 796.99 29.0564 794.19 Q30.5842 791.357 33.7671 789.511 M46.212 809.467 Q52.6732 809.467 56.3653 806.826 Q60.0256 804.152 60.0256 799.505 Q60.0256 794.858 56.3653 792.184 Q52.6732 789.511 46.212 789.511 Q39.7508 789.511 36.0905 792.184 Q32.3984 794.858 32.3984 799.505 Q32.3984 804.152 36.0905 806.826 Q39.7508 809.467 46.212 809.467 Z" fill="#000000" fill-rule="nonzero" fill-opacity="1" /><path clip-path="url(#clip920)" d="M28.3562 771.591 L28.3562 765.735 L64.0042 765.735 L64.0042 771.591 L28.3562 771.591 M14.479 771.591 L14.479 765.735 L21.895 765.735 L21.895 771.591 L14.479 771.591 Z" fill="#000000" fill-rule="nonzero" fill-opacity="1" /><path clip-path="url(#clip920)" d="M35.1993 725.726 Q31.2526 723.53 29.3747 720.475 Q27.4968 717.419 27.4968 713.281 Q27.4968 707.711 31.4117 704.688 Q35.2948 701.664 42.4881 701.664 L64.0042 701.664 L64.0042 707.552 L42.679 707.552 Q37.5546 707.552 35.072 709.367 Q32.5894 711.181 32.5894 714.905 Q32.5894 719.456 35.6131 722.098 Q38.6368 724.74 43.8567 724.74 L64.0042 724.74 L64.0042 730.628 L42.679 730.628 Q37.5228 730.628 35.072 732.442 Q32.5894 734.256 32.5894 738.044 Q32.5894 742.532 35.6449 745.174 Q38.6686 747.815 43.8567 747.815 L64.0042 747.815 L64.0042 753.704 L28.3562 753.704 L28.3562 747.815 L33.8944 747.815 Q30.616 745.81 29.0564 743.009 Q27.4968 740.208 27.4968 736.357 Q27.4968 732.474 29.4702 729.769 Q31.4436 727.031 35.1993 725.726 Z" fill="#000000" fill-rule="nonzero" fill-opacity="1" /><path clip-path="url(#clip920)" d="M44.7161 659.491 L47.5806 659.491 L47.5806 686.418 Q53.6281 686.036 56.8109 682.79 Q59.9619 679.511 59.9619 673.687 Q59.9619 670.313 59.1344 667.162 Q58.3069 663.979 56.6518 660.86 L62.1899 660.86 Q63.5267 664.011 64.227 667.321 Q64.9272 670.631 64.9272 674.037 Q64.9272 682.567 59.9619 687.564 Q54.9967 692.529 46.5303 692.529 Q37.7774 692.529 32.6531 687.819 Q27.4968 683.076 27.4968 675.055 Q27.4968 667.862 32.1438 663.693 Q36.7589 659.491 44.7161 659.491 M42.9973 665.348 Q38.1912 665.411 35.3266 668.053 Q32.4621 670.663 32.4621 674.992 Q32.4621 679.893 35.2312 682.853 Q38.0002 685.782 43.0292 686.227 L42.9973 665.348 Z" fill="#000000" fill-rule="nonzero" fill-opacity="1" /><path clip-path="url(#clip920)" d="M42.4881 620.247 L64.0042 620.247 L64.0042 626.103 L42.679 626.103 Q37.6183 626.103 35.1038 628.076 Q32.5894 630.05 32.5894 633.997 Q32.5894 638.739 35.6131 641.476 Q38.6368 644.214 43.8567 644.214 L64.0042 644.214 L64.0042 650.102 L28.3562 650.102 L28.3562 644.214 L33.8944 644.214 Q30.6797 642.113 29.0883 639.28 Q27.4968 636.416 27.4968 632.692 Q27.4968 626.549 31.3163 623.398 Q35.1038 620.247 42.4881 620.247 Z" fill="#000000" fill-rule="nonzero" fill-opacity="1" /><path clip-path="url(#clip920)" d="M29.4065 585.84 L34.9447 585.84 Q33.6716 588.323 33.035 590.996 Q32.3984 593.67 32.3984 596.534 Q32.3984 600.895 33.7352 603.091 Q35.072 605.255 37.7456 605.255 Q39.7826 605.255 40.9603 603.696 Q42.1061 602.136 43.1565 597.426 L43.6021 595.42 Q44.9389 589.182 47.3897 586.572 Q49.8086 583.93 54.1691 583.93 Q59.1344 583.93 62.0308 587.877 Q64.9272 591.792 64.9272 598.667 Q64.9272 601.531 64.3543 604.651 Q63.8132 607.738 62.6992 611.176 L56.6518 611.176 Q58.3387 607.929 59.198 604.778 Q60.0256 601.627 60.0256 598.54 Q60.0256 594.402 58.6251 592.174 Q57.1929 589.946 54.6147 589.946 Q52.2276 589.946 50.9545 591.569 Q49.6813 593.161 48.5037 598.603 L48.0262 600.64 Q46.8804 606.083 44.5251 608.502 Q42.138 610.921 38.0002 610.921 Q32.9713 610.921 30.2341 607.356 Q27.4968 603.791 27.4968 597.235 Q27.4968 593.988 27.9743 591.124 Q28.4517 588.259 29.4065 585.84 Z" fill="#000000" fill-rule="nonzero" fill-opacity="1" /><path clip-path="url(#clip920)" d="M28.3562 574.605 L28.3562 568.748 L64.0042 568.748 L64.0042 574.605 L28.3562 574.605 M14.479 574.605 L14.479 568.748 L21.895 568.748 L21.895 574.605 L14.479 574.605 Z" fill="#000000" fill-rule="nonzero" fill-opacity="1" /><path clip-path="url(#clip920)" d="M32.4621 542.681 Q32.4621 547.391 36.1542 550.128 Q39.8145 552.866 46.212 552.866 Q52.6095 552.866 56.3017 550.16 Q59.9619 547.423 59.9619 542.681 Q59.9619 538.002 56.2698 535.264 Q52.5777 532.527 46.212 532.527 Q39.8781 532.527 36.186 535.264 Q32.4621 538.002 32.4621 542.681 M27.4968 542.681 Q27.4968 535.042 32.4621 530.681 Q37.4273 526.321 46.212 526.321 Q54.9649 526.321 59.9619 530.681 Q64.9272 535.042 64.9272 542.681 Q64.9272 550.351 59.9619 554.712 Q54.9649 559.04 46.212 559.04 Q37.4273 559.04 32.4621 554.712 Q27.4968 550.351 27.4968 542.681 Z" fill="#000000" fill-rule="nonzero" fill-opacity="1" /><path clip-path="url(#clip920)" d="M42.4881 486.981 L64.0042 486.981 L64.0042 492.837 L42.679 492.837 Q37.6183 492.837 35.1038 494.81 Q32.5894 496.784 32.5894 500.731 Q32.5894 505.473 35.6131 508.21 Q38.6368 510.947 43.8567 510.947 L64.0042 510.947 L64.0042 516.836 L28.3562 516.836 L28.3562 510.947 L33.8944 510.947 Q30.6797 508.847 29.0883 506.014 Q27.4968 503.149 27.4968 499.426 Q27.4968 493.283 31.3163 490.132 Q35.1038 486.981 42.4881 486.981 Z" fill="#000000" fill-rule="nonzero" fill-opacity="1" /><path clip-path="url(#clip920)" d="M273.325 18.8205 L273.325 65.8515 L283.209 65.8515 Q295.726 65.8515 301.519 60.1802 Q307.352 54.509 307.352 42.2752 Q307.352 30.1225 301.519 24.4918 Q295.726 18.8205 283.209 18.8205 L273.325 18.8205 M265.142 12.096 L281.953 12.096 Q299.534 12.096 307.757 19.4281 Q315.981 26.7198 315.981 42.2752 Q315.981 57.9117 307.717 65.2439 Q299.453 72.576 281.953 72.576 L265.142 72.576 L265.142 12.096 Z" fill="#000000" fill-rule="nonzero" fill-opacity="1" /><path clip-path="url(#clip920)" d="M328.7 27.2059 L336.154 27.2059 L336.154 72.576 L328.7 72.576 L328.7 27.2059 M328.7 9.54393 L336.154 9.54393 L336.154 18.9825 L328.7 18.9825 L328.7 9.54393 Z" fill="#000000" fill-rule="nonzero" fill-opacity="1" /><path clip-path="url(#clip920)" d="M387.074 35.9153 Q389.869 30.8922 393.758 28.5022 Q397.647 26.1121 402.913 26.1121 Q410.002 26.1121 413.85 31.0947 Q417.699 36.0368 417.699 45.1919 L417.699 72.576 L410.205 72.576 L410.205 45.4349 Q410.205 38.913 407.896 35.7533 Q405.587 32.5936 400.847 32.5936 Q395.054 32.5936 391.692 36.4419 Q388.33 40.2903 388.33 46.9338 L388.33 72.576 L380.836 72.576 L380.836 45.4349 Q380.836 38.8725 378.527 35.7533 Q376.218 32.5936 371.397 32.5936 Q365.685 32.5936 362.323 36.4824 Q358.961 40.3308 358.961 46.9338 L358.961 72.576 L351.467 72.576 L351.467 27.2059 L358.961 27.2059 L358.961 34.2544 Q361.513 30.082 365.078 28.0971 Q368.642 26.1121 373.544 26.1121 Q378.486 26.1121 381.929 28.6237 Q385.413 31.1352 387.074 35.9153 Z" fill="#000000" fill-rule="nonzero" fill-opacity="1" /><path clip-path="url(#clip920)" d="M471.373 48.0275 L471.373 51.6733 L437.103 51.6733 Q437.589 59.3701 441.721 63.421 Q445.893 67.4314 453.306 67.4314 Q457.6 67.4314 461.611 66.3781 Q465.662 65.3249 469.631 63.2184 L469.631 70.267 Q465.621 71.9684 461.408 72.8596 Q457.195 73.7508 452.861 73.7508 Q442.004 73.7508 435.644 67.4314 Q429.325 61.1119 429.325 50.3365 Q429.325 39.1965 435.32 32.6746 Q441.356 26.1121 451.564 26.1121 Q460.719 26.1121 466.026 32.0264 Q471.373 37.9003 471.373 48.0275 M463.92 45.84 Q463.839 39.7232 460.476 36.0774 Q457.155 32.4315 451.645 32.4315 Q445.407 32.4315 441.64 35.9558 Q437.913 39.4801 437.346 45.8805 L463.92 45.84 Z" fill="#000000" fill-rule="nonzero" fill-opacity="1" /><path clip-path="url(#clip920)" d="M521.321 45.1919 L521.321 72.576 L513.867 72.576 L513.867 45.4349 Q513.867 38.994 511.356 35.7938 Q508.844 32.5936 503.821 32.5936 Q497.785 32.5936 494.301 36.4419 Q490.818 40.2903 490.818 46.9338 L490.818 72.576 L483.323 72.576 L483.323 27.2059 L490.818 27.2059 L490.818 34.2544 Q493.491 30.163 497.097 28.1376 Q500.742 26.1121 505.482 26.1121 Q513.3 26.1121 517.311 30.9732 Q521.321 35.7938 521.321 45.1919 Z" fill="#000000" fill-rule="nonzero" fill-opacity="1" /><path clip-path="url(#clip920)" d="M565.111 28.5427 L565.111 35.5912 Q561.952 33.9709 558.549 33.1607 Q555.146 32.3505 551.5 32.3505 Q545.95 32.3505 543.155 34.0519 Q540.401 35.7533 540.401 39.156 Q540.401 41.7486 542.386 43.2475 Q544.371 44.7058 550.366 46.0426 L552.918 46.6097 Q560.858 48.3111 564.18 51.4303 Q567.542 54.509 567.542 60.0587 Q567.542 66.3781 562.519 70.0644 Q557.536 73.7508 548.786 73.7508 Q545.14 73.7508 541.17 73.0216 Q537.241 72.3329 532.866 70.9151 L532.866 63.2184 Q536.998 65.3654 541.008 66.4591 Q545.019 67.5124 548.948 67.5124 Q554.214 67.5124 557.05 65.73 Q559.886 63.9071 559.886 60.6258 Q559.886 57.5877 557.82 55.9673 Q555.794 54.3469 548.867 52.8481 L546.275 52.2405 Q539.347 50.7821 536.269 47.7845 Q533.19 44.7463 533.19 39.4801 Q533.19 33.0797 537.727 29.5959 Q542.264 26.1121 550.609 26.1121 Q554.741 26.1121 558.387 26.7198 Q562.033 27.3274 565.111 28.5427 Z" fill="#000000" fill-rule="nonzero" fill-opacity="1" /><path clip-path="url(#clip920)" d="M579.411 27.2059 L586.865 27.2059 L586.865 72.576 L579.411 72.576 L579.411 27.2059 M579.411 9.54393 L586.865 9.54393 L586.865 18.9825 L579.411 18.9825 L579.411 9.54393 Z" fill="#000000" fill-rule="nonzero" fill-opacity="1" /><path clip-path="url(#clip920)" d="M620.042 32.4315 Q614.046 32.4315 610.562 37.1306 Q607.079 41.7891 607.079 49.9314 Q607.079 58.0738 610.522 62.7728 Q614.006 67.4314 620.042 67.4314 Q625.996 67.4314 629.48 62.7323 Q632.964 58.0333 632.964 49.9314 Q632.964 41.8701 629.48 37.1711 Q625.996 32.4315 620.042 32.4315 M620.042 26.1121 Q629.764 26.1121 635.313 32.4315 Q640.863 38.7509 640.863 49.9314 Q640.863 61.0714 635.313 67.4314 Q629.764 73.7508 620.042 73.7508 Q610.279 73.7508 604.729 67.4314 Q599.22 61.0714 599.22 49.9314 Q599.22 38.7509 604.729 32.4315 Q610.279 26.1121 620.042 26.1121 Z" fill="#000000" fill-rule="nonzero" fill-opacity="1" /><path clip-path="url(#clip920)" d="M690.932 45.1919 L690.932 72.576 L683.479 72.576 L683.479 45.4349 Q683.479 38.994 680.967 35.7938 Q678.456 32.5936 673.432 32.5936 Q667.397 32.5936 663.913 36.4419 Q660.429 40.2903 660.429 46.9338 L660.429 72.576 L652.935 72.576 L652.935 27.2059 L660.429 27.2059 L660.429 34.2544 Q663.103 30.163 666.708 28.1376 Q670.354 26.1121 675.093 26.1121 Q682.912 26.1121 686.922 30.9732 Q690.932 35.7938 690.932 45.1919 Z" fill="#000000" fill-rule="nonzero" fill-opacity="1" /><path clip-path="url(#clip920)" d="M749.751 32.4315 Q743.756 32.4315 740.272 37.1306 Q736.789 41.7891 736.789 49.9314 Q736.789 58.0738 740.232 62.7728 Q743.716 67.4314 749.751 67.4314 Q755.706 67.4314 759.19 62.7323 Q762.674 58.0333 762.674 49.9314 Q762.674 41.8701 759.19 37.1711 Q755.706 32.4315 749.751 32.4315 M749.751 26.1121 Q759.474 26.1121 765.023 32.4315 Q770.573 38.7509 770.573 49.9314 Q770.573 61.0714 765.023 67.4314 Q759.474 73.7508 749.751 73.7508 Q739.989 73.7508 734.439 67.4314 Q728.93 61.0714 728.93 49.9314 Q728.93 38.7509 734.439 32.4315 Q739.989 26.1121 749.751 26.1121 Z" fill="#000000" fill-rule="nonzero" fill-opacity="1" /><path clip-path="url(#clip920)" d="M805.897 9.54393 L805.897 15.7418 L798.767 15.7418 Q794.757 15.7418 793.177 17.3622 Q791.638 18.9825 791.638 23.1955 L791.638 27.2059 L803.912 27.2059 L803.912 32.9987 L791.638 32.9987 L791.638 72.576 L784.144 72.576 L784.144 32.9987 L777.014 32.9987 L777.014 27.2059 L784.144 27.2059 L784.144 24.0462 Q784.144 16.471 787.668 13.0277 Q791.192 9.54393 798.848 9.54393 L805.897 9.54393 Z" fill="#000000" fill-rule="nonzero" fill-opacity="1" /><path clip-path="url(#clip920)" d="M875.086 14.0809 L875.086 22.0612 Q870.428 19.8332 866.296 18.7395 Q862.164 17.6457 858.316 17.6457 Q851.632 17.6457 847.986 20.2383 Q844.381 22.8309 844.381 27.611 Q844.381 31.6214 846.771 33.6873 Q849.201 35.7128 855.926 36.9686 L860.868 37.9813 Q870.023 39.7232 874.357 44.1387 Q878.732 48.5136 878.732 55.8863 Q878.732 64.6767 872.818 69.2137 Q866.944 73.7508 855.561 73.7508 Q851.267 73.7508 846.406 72.7785 Q841.585 71.8063 836.4 69.9024 L836.4 61.4765 Q841.383 64.2716 846.163 65.6895 Q850.943 67.1073 855.561 67.1073 Q862.569 67.1073 866.377 64.3527 Q870.185 61.598 870.185 56.4939 Q870.185 52.0379 867.43 49.5264 Q864.716 47.0148 858.478 45.759 L853.495 44.7868 Q844.34 42.9639 840.249 39.075 Q836.157 35.1862 836.157 28.2591 Q836.157 20.2383 841.788 15.6203 Q847.459 11.0023 857.384 11.0023 Q861.637 11.0023 866.053 11.7719 Q870.468 12.5416 875.086 14.0809 Z" fill="#000000" fill-rule="nonzero" fill-opacity="1" /><path clip-path="url(#clip920)" d="M929.976 48.0275 L929.976 51.6733 L895.706 51.6733 Q896.192 59.3701 900.324 63.421 Q904.496 67.4314 911.909 67.4314 Q916.203 67.4314 920.214 66.3781 Q924.264 65.3249 928.234 63.2184 L928.234 70.267 Q924.224 71.9684 920.011 72.8596 Q915.798 73.7508 911.464 73.7508 Q900.607 73.7508 894.247 67.4314 Q887.928 61.1119 887.928 50.3365 Q887.928 39.1965 893.923 32.6746 Q899.959 26.1121 910.167 26.1121 Q919.322 26.1121 924.629 32.0264 Q929.976 37.9003 929.976 48.0275 M922.523 45.84 Q922.442 39.7232 919.079 36.0774 Q915.758 32.4315 910.248 32.4315 Q904.01 32.4315 900.243 35.9558 Q896.516 39.4801 895.949 45.8805 L922.523 45.84 Z" fill="#000000" fill-rule="nonzero" fill-opacity="1" /><path clip-path="url(#clip920)" d="M974.86 28.9478 L974.86 35.9153 Q971.701 34.1734 968.5 33.3227 Q965.341 32.4315 962.1 32.4315 Q954.849 32.4315 950.838 37.0496 Q946.828 41.6271 946.828 49.9314 Q946.828 58.2358 950.838 62.8538 Q954.849 67.4314 962.1 67.4314 Q965.341 67.4314 968.5 66.5807 Q971.701 65.6895 974.86 63.9476 L974.86 70.8341 Q971.741 72.2924 968.379 73.0216 Q965.057 73.7508 961.29 73.7508 Q951.041 73.7508 945.005 67.3098 Q938.969 60.8689 938.969 49.9314 Q938.969 38.832 945.046 32.472 Q951.162 26.1121 961.776 26.1121 Q965.219 26.1121 968.5 26.8413 Q971.782 27.5299 974.86 28.9478 Z" fill="#000000" fill-rule="nonzero" fill-opacity="1" /><path clip-path="url(#clip920)" d="M1008.44 49.7694 Q999.409 49.7694 995.925 51.8354 Q992.441 53.9013 992.441 58.8839 Q992.441 62.8538 995.034 65.2034 Q997.667 67.5124 1002.16 67.5124 Q1008.36 67.5124 1012.09 63.1374 Q1015.86 58.7219 1015.86 51.4303 L1015.86 49.7694 L1008.44 49.7694 M1023.31 46.6907 L1023.31 72.576 L1015.86 72.576 L1015.86 65.6895 Q1013.3 69.8214 1009.5 71.8063 Q1005.69 73.7508 1000.18 73.7508 Q993.211 73.7508 989.079 69.8619 Q984.987 65.9325 984.987 59.3701 Q984.987 51.7138 990.092 47.825 Q995.236 43.9361 1005.4 43.9361 L1015.86 43.9361 L1015.86 43.2069 Q1015.86 38.0623 1012.45 35.2672 Q1009.09 32.4315 1002.97 32.4315 Q999.085 32.4315 995.398 33.3632 Q991.712 34.295 988.309 36.1584 L988.309 29.2718 Q992.401 27.692 996.249 26.9223 Q1000.1 26.1121 1003.74 26.1121 Q1013.59 26.1121 1018.45 31.2163 Q1023.31 36.3204 1023.31 46.6907 Z" fill="#000000" fill-rule="nonzero" fill-opacity="1" /><path clip-path="url(#clip920)" d="M1076.38 45.1919 L1076.38 72.576 L1068.92 72.576 L1068.92 45.4349 Q1068.92 38.994 1066.41 35.7938 Q1063.9 32.5936 1058.88 32.5936 Q1052.84 32.5936 1049.36 36.4419 Q1045.87 40.2903 1045.87 46.9338 L1045.87 72.576 L1038.38 72.576 L1038.38 27.2059 L1045.87 27.2059 L1045.87 34.2544 Q1048.55 30.163 1052.15 28.1376 Q1055.8 26.1121 1060.54 26.1121 Q1068.36 26.1121 1072.37 30.9732 Q1076.38 35.7938 1076.38 45.1919 Z" fill="#000000" fill-rule="nonzero" fill-opacity="1" /><path clip-path="url(#clip920)" d="M1098.62 14.324 L1098.62 27.2059 L1113.97 27.2059 L1113.97 32.9987 L1098.62 32.9987 L1098.62 57.6282 Q1098.62 63.1779 1100.11 64.7578 Q1101.65 66.3376 1106.31 66.3376 L1113.97 66.3376 L1113.97 72.576 L1106.31 72.576 Q1097.68 72.576 1094.4 69.3758 Q1091.12 66.1351 1091.12 57.6282 L1091.12 32.9987 L1085.65 32.9987 L1085.65 27.2059 L1091.12 27.2059 L1091.12 14.324 L1098.62 14.324 Z" fill="#000000" fill-rule="nonzero" fill-opacity="1" /><path clip-path="url(#clip920)" d="M1152.69 28.5427 L1152.69 35.5912 Q1149.54 33.9709 1146.13 33.1607 Q1142.73 32.3505 1139.08 32.3505 Q1133.53 32.3505 1130.74 34.0519 Q1127.98 35.7533 1127.98 39.156 Q1127.98 41.7486 1129.97 43.2475 Q1131.95 44.7058 1137.95 46.0426 L1140.5 46.6097 Q1148.44 48.3111 1151.76 51.4303 Q1155.13 54.509 1155.13 60.0587 Q1155.13 66.3781 1150.1 70.0644 Q1145.12 73.7508 1136.37 73.7508 Q1132.72 73.7508 1128.75 73.0216 Q1124.82 72.3329 1120.45 70.9151 L1120.45 63.2184 Q1124.58 65.3654 1128.59 66.4591 Q1132.6 67.5124 1136.53 67.5124 Q1141.8 67.5124 1144.63 65.73 Q1147.47 63.9071 1147.47 60.6258 Q1147.47 57.5877 1145.4 55.9673 Q1143.38 54.3469 1136.45 52.8481 L1133.86 52.2405 Q1126.93 50.7821 1123.85 47.7845 Q1120.77 44.7463 1120.77 39.4801 Q1120.77 33.0797 1125.31 29.5959 Q1129.85 26.1121 1138.19 26.1121 Q1142.32 26.1121 1145.97 26.7198 Q1149.62 27.3274 1152.69 28.5427 Z" fill="#000000" fill-rule="nonzero" fill-opacity="1" /><path clip-path="url(#clip920)" d="M1210.95 32.4315 Q1204.95 32.4315 1201.47 37.1306 Q1197.98 41.7891 1197.98 49.9314 Q1197.98 58.0738 1201.43 62.7728 Q1204.91 67.4314 1210.95 67.4314 Q1216.9 67.4314 1220.39 62.7323 Q1223.87 58.0333 1223.87 49.9314 Q1223.87 41.8701 1220.39 37.1711 Q1216.9 32.4315 1210.95 32.4315 M1210.95 26.1121 Q1220.67 26.1121 1226.22 32.4315 Q1231.77 38.7509 1231.77 49.9314 Q1231.77 61.0714 1226.22 67.4314 Q1220.67 73.7508 1210.95 73.7508 Q1201.18 73.7508 1195.63 67.4314 Q1190.13 61.0714 1190.13 49.9314 Q1190.13 38.7509 1195.63 32.4315 Q1201.18 26.1121 1210.95 26.1121 Z" fill="#000000" fill-rule="nonzero" fill-opacity="1" /><path clip-path="url(#clip920)" d="M1267.09 9.54393 L1267.09 15.7418 L1259.96 15.7418 Q1255.95 15.7418 1254.37 17.3622 Q1252.83 18.9825 1252.83 23.1955 L1252.83 27.2059 L1265.11 27.2059 L1265.11 32.9987 L1252.83 32.9987 L1252.83 72.576 L1245.34 72.576 L1245.34 32.9987 L1238.21 32.9987 L1238.21 27.2059 L1245.34 27.2059 L1245.34 24.0462 Q1245.34 16.471 1248.86 13.0277 Q1252.39 9.54393 1260.04 9.54393 L1267.09 9.54393 Z" fill="#000000" fill-rule="nonzero" fill-opacity="1" /><path clip-path="url(#clip920)" d="M1341.26 63.9476 L1341.26 47.7034 L1327.9 47.7034 L1327.9 40.9789 L1349.37 40.9789 L1349.37 66.9452 Q1344.63 70.3075 1338.91 72.0494 Q1333.2 73.7508 1326.72 73.7508 Q1312.54 73.7508 1304.52 65.4869 Q1296.54 57.1826 1296.54 42.3968 Q1296.54 27.5705 1304.52 19.3066 Q1312.54 11.0023 1326.72 11.0023 Q1332.64 11.0023 1337.94 12.4606 Q1343.29 13.9189 1347.79 16.7545 L1347.79 25.464 Q1343.25 21.6156 1338.15 19.6712 Q1333.04 17.7268 1327.41 17.7268 Q1316.31 17.7268 1310.72 23.9246 Q1305.17 30.1225 1305.17 42.3968 Q1305.17 54.6305 1310.72 60.8284 Q1316.31 67.0263 1327.41 67.0263 Q1331.74 67.0263 1335.15 66.2971 Q1338.55 65.5274 1341.26 63.9476 Z" fill="#000000" fill-rule="nonzero" fill-opacity="1" /><path clip-path="url(#clip920)" d="M1384.61 49.7694 Q1375.58 49.7694 1372.09 51.8354 Q1368.61 53.9013 1368.61 58.8839 Q1368.61 62.8538 1371.2 65.2034 Q1373.83 67.5124 1378.33 67.5124 Q1384.53 67.5124 1388.25 63.1374 Q1392.02 58.7219 1392.02 51.4303 L1392.02 49.7694 L1384.61 49.7694 M1399.48 46.6907 L1399.48 72.576 L1392.02 72.576 L1392.02 65.6895 Q1389.47 69.8214 1385.66 71.8063 Q1381.85 73.7508 1376.35 73.7508 Q1369.38 73.7508 1365.25 69.8619 Q1361.15 65.9325 1361.15 59.3701 Q1361.15 51.7138 1366.26 47.825 Q1371.4 43.9361 1381.57 43.9361 L1392.02 43.9361 L1392.02 43.2069 Q1392.02 38.0623 1388.62 35.2672 Q1385.26 32.4315 1379.14 32.4315 Q1375.25 32.4315 1371.57 33.3632 Q1367.88 34.295 1364.48 36.1584 L1364.48 29.2718 Q1368.57 27.692 1372.42 26.9223 Q1376.26 26.1121 1379.91 26.1121 Q1389.75 26.1121 1394.61 31.2163 Q1399.48 36.3204 1399.48 46.6907 Z" fill="#000000" fill-rule="nonzero" fill-opacity="1" /><path clip-path="url(#clip920)" d="M1414.06 54.671 L1414.06 27.2059 L1421.51 27.2059 L1421.51 54.3874 Q1421.51 60.8284 1424.02 64.0691 Q1426.54 67.2693 1431.56 67.2693 Q1437.59 67.2693 1441.08 63.421 Q1444.6 59.5726 1444.6 52.9291 L1444.6 27.2059 L1452.06 27.2059 L1452.06 72.576 L1444.6 72.576 L1444.6 65.6084 Q1441.89 69.7404 1438.28 71.7658 Q1434.72 73.7508 1429.98 73.7508 Q1422.16 73.7508 1418.11 68.8897 Q1414.06 64.0286 1414.06 54.671 M1432.81 26.1121 L1432.81 26.1121 Z" fill="#000000" fill-rule="nonzero" fill-opacity="1" /><path clip-path="url(#clip920)" d="M1496.33 28.5427 L1496.33 35.5912 Q1493.17 33.9709 1489.77 33.1607 Q1486.37 32.3505 1482.72 32.3505 Q1477.17 32.3505 1474.38 34.0519 Q1471.62 35.7533 1471.62 39.156 Q1471.62 41.7486 1473.61 43.2475 Q1475.59 44.7058 1481.59 46.0426 L1484.14 46.6097 Q1492.08 48.3111 1495.4 51.4303 Q1498.76 54.509 1498.76 60.0587 Q1498.76 66.3781 1493.74 70.0644 Q1488.76 73.7508 1480.01 73.7508 Q1476.36 73.7508 1472.39 73.0216 Q1468.46 72.3329 1464.09 70.9151 L1464.09 63.2184 Q1468.22 65.3654 1472.23 66.4591 Q1476.24 67.5124 1480.17 67.5124 Q1485.44 67.5124 1488.27 65.73 Q1491.11 63.9071 1491.11 60.6258 Q1491.11 57.5877 1489.04 55.9673 Q1487.02 54.3469 1480.09 52.8481 L1477.5 52.2405 Q1470.57 50.7821 1467.49 47.7845 Q1464.41 44.7463 1464.41 39.4801 Q1464.41 33.0797 1468.95 29.5959 Q1473.49 26.1121 1481.83 26.1121 Q1485.96 26.1121 1489.61 26.7198 Q1493.25 27.3274 1496.33 28.5427 Z" fill="#000000" fill-rule="nonzero" fill-opacity="1" /><path clip-path="url(#clip920)" d="M1539.56 28.5427 L1539.56 35.5912 Q1536.4 33.9709 1532.99 33.1607 Q1529.59 32.3505 1525.95 32.3505 Q1520.4 32.3505 1517.6 34.0519 Q1514.85 35.7533 1514.85 39.156 Q1514.85 41.7486 1516.83 43.2475 Q1518.82 44.7058 1524.81 46.0426 L1527.36 46.6097 Q1535.3 48.3111 1538.62 51.4303 Q1541.99 54.509 1541.99 60.0587 Q1541.99 66.3781 1536.96 70.0644 Q1531.98 73.7508 1523.23 73.7508 Q1519.59 73.7508 1515.62 73.0216 Q1511.69 72.3329 1507.31 70.9151 L1507.31 63.2184 Q1511.44 65.3654 1515.45 66.4591 Q1519.46 67.5124 1523.39 67.5124 Q1528.66 67.5124 1531.49 65.73 Q1534.33 63.9071 1534.33 60.6258 Q1534.33 57.5877 1532.26 55.9673 Q1530.24 54.3469 1523.31 52.8481 L1520.72 52.2405 Q1513.79 50.7821 1510.71 47.7845 Q1507.64 44.7463 1507.64 39.4801 Q1507.64 33.0797 1512.17 29.5959 Q1516.71 26.1121 1525.05 26.1121 Q1529.19 26.1121 1532.83 26.7198 Q1536.48 27.3274 1539.56 28.5427 Z" fill="#000000" fill-rule="nonzero" fill-opacity="1" /><path clip-path="url(#clip920)" d="M1553.86 27.2059 L1561.31 27.2059 L1561.31 72.576 L1553.86 72.576 L1553.86 27.2059 M1553.86 9.54393 L1561.31 9.54393 L1561.31 18.9825 L1553.86 18.9825 L1553.86 9.54393 Z" fill="#000000" fill-rule="nonzero" fill-opacity="1" /><path clip-path="url(#clip920)" d="M1597.52 49.7694 Q1588.49 49.7694 1585.01 51.8354 Q1581.52 53.9013 1581.52 58.8839 Q1581.52 62.8538 1584.12 65.2034 Q1586.75 67.5124 1591.25 67.5124 Q1597.44 67.5124 1601.17 63.1374 Q1604.94 58.7219 1604.94 51.4303 L1604.94 49.7694 L1597.52 49.7694 M1612.39 46.6907 L1612.39 72.576 L1604.94 72.576 L1604.94 65.6895 Q1602.39 69.8214 1598.58 71.8063 Q1594.77 73.7508 1589.26 73.7508 Q1582.29 73.7508 1578.16 69.8619 Q1574.07 65.9325 1574.07 59.3701 Q1574.07 51.7138 1579.17 47.825 Q1584.32 43.9361 1594.49 43.9361 L1604.94 43.9361 L1604.94 43.2069 Q1604.94 38.0623 1601.54 35.2672 Q1598.17 32.4315 1592.06 32.4315 Q1588.17 32.4315 1584.48 33.3632 Q1580.79 34.295 1577.39 36.1584 L1577.39 29.2718 Q1581.48 27.692 1585.33 26.9223 Q1589.18 26.1121 1592.83 26.1121 Q1602.67 26.1121 1607.53 31.2163 Q1612.39 36.3204 1612.39 46.6907 Z" fill="#000000" fill-rule="nonzero" fill-opacity="1" /><path clip-path="url(#clip920)" d="M1665.46 45.1919 L1665.46 72.576 L1658 72.576 L1658 45.4349 Q1658 38.994 1655.49 35.7938 Q1652.98 32.5936 1647.96 32.5936 Q1641.92 32.5936 1638.44 36.4419 Q1634.96 40.2903 1634.96 46.9338 L1634.96 72.576 L1627.46 72.576 L1627.46 27.2059 L1634.96 27.2059 L1634.96 34.2544 Q1637.63 30.163 1641.23 28.1376 Q1644.88 26.1121 1649.62 26.1121 Q1657.44 26.1121 1661.45 30.9732 Q1665.46 35.7938 1665.46 45.1919 Z" fill="#000000" fill-rule="nonzero" fill-opacity="1" /><path clip-path="url(#clip920)" d="M1707.02 12.096 L1719.21 12.096 L1734.65 53.2532 L1750.16 12.096 L1762.36 12.096 L1762.36 72.576 L1754.38 72.576 L1754.38 19.4686 L1738.78 60.9499 L1730.56 60.9499 L1714.96 19.4686 L1714.96 72.576 L1707.02 72.576 L1707.02 12.096 Z" fill="#000000" fill-rule="nonzero" fill-opacity="1" /><path clip-path="url(#clip920)" d="M1795.86 32.4315 Q1789.86 32.4315 1786.38 37.1306 Q1782.89 41.7891 1782.89 49.9314 Q1782.89 58.0738 1786.34 62.7728 Q1789.82 67.4314 1795.86 67.4314 Q1801.81 67.4314 1805.3 62.7323 Q1808.78 58.0333 1808.78 49.9314 Q1808.78 41.8701 1805.3 37.1711 Q1801.81 32.4315 1795.86 32.4315 M1795.86 26.1121 Q1805.58 26.1121 1811.13 32.4315 Q1816.68 38.7509 1816.68 49.9314 Q1816.68 61.0714 1811.13 67.4314 Q1805.58 73.7508 1795.86 73.7508 Q1786.09 73.7508 1780.54 67.4314 Q1775.04 61.0714 1775.04 49.9314 Q1775.04 38.7509 1780.54 32.4315 Q1786.09 26.1121 1795.86 26.1121 Z" fill="#000000" fill-rule="nonzero" fill-opacity="1" /><path clip-path="url(#clip920)" d="M1864.36 35.9153 Q1867.15 30.8922 1871.04 28.5022 Q1874.93 26.1121 1880.2 26.1121 Q1887.29 26.1121 1891.13 31.0947 Q1894.98 36.0368 1894.98 45.1919 L1894.98 72.576 L1887.49 72.576 L1887.49 45.4349 Q1887.49 38.913 1885.18 35.7533 Q1882.87 32.5936 1878.13 32.5936 Q1872.34 32.5936 1868.98 36.4419 Q1865.61 40.2903 1865.61 46.9338 L1865.61 72.576 L1858.12 72.576 L1858.12 45.4349 Q1858.12 38.8725 1855.81 35.7533 Q1853.5 32.5936 1848.68 32.5936 Q1842.97 32.5936 1839.61 36.4824 Q1836.24 40.3308 1836.24 46.9338 L1836.24 72.576 L1828.75 72.576 L1828.75 27.2059 L1836.24 27.2059 L1836.24 34.2544 Q1838.8 30.082 1842.36 28.0971 Q1845.93 26.1121 1850.83 26.1121 Q1855.77 26.1121 1859.21 28.6237 Q1862.7 31.1352 1864.36 35.9153 Z" fill="#000000" fill-rule="nonzero" fill-opacity="1" /><path clip-path="url(#clip920)" d="M1948.66 48.0275 L1948.66 51.6733 L1914.39 51.6733 Q1914.87 59.3701 1919 63.421 Q1923.18 67.4314 1930.59 67.4314 Q1934.88 67.4314 1938.89 66.3781 Q1942.95 65.3249 1946.92 63.2184 L1946.92 70.267 Q1942.9 71.9684 1938.69 72.8596 Q1934.48 73.7508 1930.14 73.7508 Q1919.29 73.7508 1912.93 67.4314 Q1906.61 61.1119 1906.61 50.3365 Q1906.61 39.1965 1912.6 32.6746 Q1918.64 26.1121 1928.85 26.1121 Q1938 26.1121 1943.31 32.0264 Q1948.66 37.9003 1948.66 48.0275 M1941.2 45.84 Q1941.12 39.7232 1937.76 36.0774 Q1934.44 32.4315 1928.93 32.4315 Q1922.69 32.4315 1918.92 35.9558 Q1915.2 39.4801 1914.63 45.8805 L1941.2 45.84 Z" fill="#000000" fill-rule="nonzero" fill-opacity="1" /><path clip-path="url(#clip920)" d="M1998.6 45.1919 L1998.6 72.576 L1991.15 72.576 L1991.15 45.4349 Q1991.15 38.994 1988.64 35.7938 Q1986.13 32.5936 1981.1 32.5936 Q1975.07 32.5936 1971.59 36.4419 Q1968.1 40.2903 1968.1 46.9338 L1968.1 72.576 L1960.61 72.576 L1960.61 27.2059 L1968.1 27.2059 L1968.1 34.2544 Q1970.78 30.163 1974.38 28.1376 Q1978.03 26.1121 1982.77 26.1121 Q1990.58 26.1121 1994.59 30.9732 Q1998.6 35.7938 1998.6 45.1919 Z" fill="#000000" fill-rule="nonzero" fill-opacity="1" /><path clip-path="url(#clip920)" d="M2020.84 14.324 L2020.84 27.2059 L2036.2 27.2059 L2036.2 32.9987 L2020.84 32.9987 L2020.84 57.6282 Q2020.84 63.1779 2022.34 64.7578 Q2023.88 66.3376 2028.54 66.3376 L2036.2 66.3376 L2036.2 72.576 L2028.54 72.576 Q2019.91 72.576 2016.63 69.3758 Q2013.35 66.1351 2013.35 57.6282 L2013.35 32.9987 L2007.88 32.9987 L2007.88 27.2059 L2013.35 27.2059 L2013.35 14.324 L2020.84 14.324 Z" fill="#000000" fill-rule="nonzero" fill-opacity="1" /><path clip-path="url(#clip920)" d="M2088.29 72.576 L2065.2 12.096 L2073.75 12.096 L2092.91 63.0159 L2112.11 12.096 L2120.62 12.096 L2097.57 72.576 L2088.29 72.576 Z" fill="#000000" fill-rule="nonzero" fill-opacity="1" /><path clip-path="url(#clip920)" d="M2143.3 49.7694 Q2134.27 49.7694 2130.79 51.8354 Q2127.3 53.9013 2127.3 58.8839 Q2127.3 62.8538 2129.89 65.2034 Q2132.53 67.5124 2137.02 67.5124 Q2143.22 67.5124 2146.95 63.1374 Q2150.72 58.7219 2150.72 51.4303 L2150.72 49.7694 L2143.3 49.7694 M2158.17 46.6907 L2158.17 72.576 L2150.72 72.576 L2150.72 65.6895 Q2148.16 69.8214 2144.36 71.8063 Q2140.55 73.7508 2135.04 73.7508 Q2128.07 73.7508 2123.94 69.8619 Q2119.85 65.9325 2119.85 59.3701 Q2119.85 51.7138 2124.95 47.825 Q2130.1 43.9361 2140.26 43.9361 L2150.72 43.9361 L2150.72 43.2069 Q2150.72 38.0623 2147.31 35.2672 Q2143.95 32.4315 2137.83 32.4315 Q2133.95 32.4315 2130.26 33.3632 Q2126.57 34.295 2123.17 36.1584 L2123.17 29.2718 Q2127.26 27.692 2131.11 26.9223 Q2134.96 26.1121 2138.6 26.1121 Q2148.45 26.1121 2153.31 31.2163 Q2158.17 36.3204 2158.17 46.6907 Z" fill="#000000" fill-rule="nonzero" fill-opacity="1" /><path clip-path="url(#clip920)" d="M2199.81 34.1734 Q2198.56 33.4443 2197.06 33.1202 Q2195.6 32.7556 2193.82 32.7556 Q2187.5 32.7556 2184.1 36.8875 Q2180.73 40.9789 2180.73 48.6757 L2180.73 72.576 L2173.24 72.576 L2173.24 27.2059 L2180.73 27.2059 L2180.73 34.2544 Q2183.08 30.1225 2186.85 28.1376 Q2190.62 26.1121 2196.01 26.1121 Q2196.77 26.1121 2197.71 26.2337 Q2198.64 26.3147 2199.77 26.5172 L2199.81 34.1734 Z" fill="#000000" fill-rule="nonzero" fill-opacity="1" /><path clip-path="url(#clip920)" d="M2207.63 27.2059 L2215.09 27.2059 L2215.09 72.576 L2207.63 72.576 L2207.63 27.2059 M2207.63 9.54393 L2215.09 9.54393 L2215.09 18.9825 L2207.63 18.9825 L2207.63 9.54393 Z" fill="#000000" fill-rule="nonzero" fill-opacity="1" /><path clip-path="url(#clip920)" d="M2269.49 48.0275 L2269.49 51.6733 L2235.22 51.6733 Q2235.7 59.3701 2239.84 63.421 Q2244.01 67.4314 2251.42 67.4314 Q2255.72 67.4314 2259.73 66.3781 Q2263.78 65.3249 2267.75 63.2184 L2267.75 70.267 Q2263.74 71.9684 2259.52 72.8596 Q2255.31 73.7508 2250.98 73.7508 Q2240.12 73.7508 2233.76 67.4314 Q2227.44 61.1119 2227.44 50.3365 Q2227.44 39.1965 2233.44 32.6746 Q2239.47 26.1121 2249.68 26.1121 Q2258.83 26.1121 2264.14 32.0264 Q2269.49 37.9003 2269.49 48.0275 M2262.04 45.84 Q2261.95 39.7232 2258.59 36.0774 Q2255.27 32.4315 2249.76 32.4315 Q2243.52 32.4315 2239.76 35.9558 Q2236.03 39.4801 2235.46 45.8805 L2262.04 45.84 Z" fill="#000000" fill-rule="nonzero" fill-opacity="1" /><path clip-path="url(#clip920)" d="M2289.1 14.324 L2289.1 27.2059 L2304.45 27.2059 L2304.45 32.9987 L2289.1 32.9987 L2289.1 57.6282 Q2289.1 63.1779 2290.59 64.7578 Q2292.13 66.3376 2296.79 66.3376 L2304.45 66.3376 L2304.45 72.576 L2296.79 72.576 Q2288.16 72.576 2284.88 69.3758 Q2281.6 66.1351 2281.6 57.6282 L2281.6 32.9987 L2276.13 32.9987 L2276.13 27.2059 L2281.6 27.2059 L2281.6 14.324 L2289.1 14.324 Z" fill="#000000" fill-rule="nonzero" fill-opacity="1" /><path clip-path="url(#clip920)" d="M2333.13 76.7889 Q2329.97 84.8907 2326.97 87.3618 Q2323.97 89.8329 2318.95 89.8329 L2313 89.8329 L2313 83.5945 L2317.37 83.5945 Q2320.45 83.5945 2322.15 82.1361 Q2323.85 80.6778 2325.92 75.2496 L2327.25 71.8468 L2308.9 27.2059 L2316.8 27.2059 L2330.98 62.6918 L2345.16 27.2059 L2353.06 27.2059 L2333.13 76.7889 Z" fill="#000000" fill-rule="nonzero" fill-opacity="1" /><polyline clip-path="url(#clip922)" style="stroke:#009af9; stroke-linecap:round; stroke-linejoin:round; stroke-width:4; stroke-opacity:1; fill:none" points="324.52,1396.42 475.994,1395.4 627.467,1390.81 778.941,1383.17 930.415,1371.7 1081.89,1348 1233.36,1324.55 1384.84,1283.02 1536.31,1229.5 1687.79,1162.47 1839.26,1080.41 1990.73,981.789 2142.21,839.586 2293.68,699.676 "/>
<polyline clip-path="url(#clip922)" style="stroke:#009af9; stroke-linecap:round; stroke-linejoin:round; stroke-width:4; stroke-opacity:1; fill:none" stroke-dasharray="16, 10" points="324.52,1396.42 475.994,1395.4 627.467,1390.56 778.941,1382.4 930.415,1370.17 1081.89,1344.18 1233.36,1319.2 1384.84,1273.84 1536.31,1215.48 1687.79,1142.6 1839.26,1053.66 1990.73,947.13 2142.21,791.165 2293.68,640.807 "/>
<circle clip-path="url(#clip922)" cx="324.52" cy="1396.42" r="14.4" fill="#009af9" fill-rule="evenodd" fill-opacity="1" stroke="#000000" stroke-opacity="1" stroke-width="3.2"/>
<circle clip-path="url(#clip922)" cx="475.994" cy="1395.4" r="14.4" fill="#009af9" fill-rule="evenodd" fill-opacity="1" stroke="#000000" stroke-opacity="1" stroke-width="3.2"/>
<circle clip-path="url(#clip922)" cx="627.467" cy="1390.81" r="14.4" fill="#009af9" fill-rule="evenodd" fill-opacity="1" stroke="#000000" stroke-opacity="1" stroke-width="3.2"/>
<circle clip-path="url(#clip922)" cx="778.941" cy="1383.17" r="14.4" fill="#009af9" fill-rule="evenodd" fill-opacity="1" stroke="#000000" stroke-opacity="1" stroke-width="3.2"/>
<circle clip-path="url(#clip922)" cx="930.415" cy="1371.7" r="14.4" fill="#009af9" fill-rule="evenodd" fill-opacity="1" stroke="#000000" stroke-opacity="1" stroke-width="3.2"/>
<circle clip-path="url(#clip922)" cx="1081.89" cy="1348" r="14.4" fill="#009af9" fill-rule="evenodd" fill-opacity="1" stroke="#000000" stroke-opacity="1" stroke-width="3.2"/>
<circle clip-path="url(#clip922)" cx="1233.36" cy="1324.55" r="14.4" fill="#009af9" fill-rule="evenodd" fill-opacity="1" stroke="#000000" stroke-opacity="1" stroke-width="3.2"/>
<circle clip-path="url(#clip922)" cx="1384.84" cy="1283.02" r="14.4" fill="#009af9" fill-rule="evenodd" fill-opacity="1" stroke="#000000" stroke-opacity="1" stroke-width="3.2"/>
<circle clip-path="url(#clip922)" cx="1536.31" cy="1229.5" r="14.4" fill="#009af9" fill-rule="evenodd" fill-opacity="1" stroke="#000000" stroke-opacity="1" stroke-width="3.2"/>
<circle clip-path="url(#clip922)" cx="1687.79" cy="1162.47" r="14.4" fill="#009af9" fill-rule="evenodd" fill-opacity="1" stroke="#000000" stroke-opacity="1" stroke-width="3.2"/>
<circle clip-path="url(#clip922)" cx="1839.26" cy="1080.41" r="14.4" fill="#009af9" fill-rule="evenodd" fill-opacity="1" stroke="#000000" stroke-opacity="1" stroke-width="3.2"/>
<circle clip-path="url(#clip922)" cx="1990.73" cy="981.789" r="14.4" fill="#009af9" fill-rule="evenodd" fill-opacity="1" stroke="#000000" stroke-opacity="1" stroke-width="3.2"/>
<circle clip-path="url(#clip922)" cx="2142.21" cy="839.586" r="14.4" fill="#009af9" fill-rule="evenodd" fill-opacity="1" stroke="#000000" stroke-opacity="1" stroke-width="3.2"/>
<circle clip-path="url(#clip922)" cx="2293.68" cy="699.676" r="14.4" fill="#009af9" fill-rule="evenodd" fill-opacity="1" stroke="#000000" stroke-opacity="1" stroke-width="3.2"/>
<polyline clip-path="url(#clip922)" style="stroke:#e26f46; stroke-linecap:round; stroke-linejoin:round; stroke-width:4; stroke-opacity:1; fill:none" stroke-dasharray="16, 10" points="324.52,1396.42 475.994,1393.11 627.467,1383.42 778.941,1367.11 930.415,1335.77 1081.89,1281.74 1233.36,1195.86 1384.84,1081.18 1536.31,900.748 1687.79,632.397 1839.26,296.766 1990.73,-166.031 2142.21,-785.814 2293.68,-1561.05 "/>
<circle clip-path="url(#clip922)" cx="324.52" cy="1396.42" r="14.4" fill="#e26f46" fill-rule="evenodd" fill-opacity="1" stroke="#000000" stroke-opacity="1" stroke-width="3.2"/>
<circle clip-path="url(#clip922)" cx="475.994" cy="1393.11" r="14.4" fill="#e26f46" fill-rule="evenodd" fill-opacity="1" stroke="#000000" stroke-opacity="1" stroke-width="3.2"/>
<circle clip-path="url(#clip922)" cx="627.467" cy="1383.42" r="14.4" fill="#e26f46" fill-rule="evenodd" fill-opacity="1" stroke="#000000" stroke-opacity="1" stroke-width="3.2"/>
<circle clip-path="url(#clip922)" cx="778.941" cy="1367.11" r="14.4" fill="#e26f46" fill-rule="evenodd" fill-opacity="1" stroke="#000000" stroke-opacity="1" stroke-width="3.2"/>
<circle clip-path="url(#clip922)" cx="930.415" cy="1335.77" r="14.4" fill="#e26f46" fill-rule="evenodd" fill-opacity="1" stroke="#000000" stroke-opacity="1" stroke-width="3.2"/>
<circle clip-path="url(#clip922)" cx="1081.89" cy="1281.74" r="14.4" fill="#e26f46" fill-rule="evenodd" fill-opacity="1" stroke="#000000" stroke-opacity="1" stroke-width="3.2"/>
<circle clip-path="url(#clip922)" cx="1233.36" cy="1195.86" r="14.4" fill="#e26f46" fill-rule="evenodd" fill-opacity="1" stroke="#000000" stroke-opacity="1" stroke-width="3.2"/>
<circle clip-path="url(#clip922)" cx="1384.84" cy="1081.18" r="14.4" fill="#e26f46" fill-rule="evenodd" fill-opacity="1" stroke="#000000" stroke-opacity="1" stroke-width="3.2"/>
<circle clip-path="url(#clip922)" cx="1536.31" cy="900.748" r="14.4" fill="#e26f46" fill-rule="evenodd" fill-opacity="1" stroke="#000000" stroke-opacity="1" stroke-width="3.2"/>
<circle clip-path="url(#clip922)" cx="1687.79" cy="632.397" r="14.4" fill="#e26f46" fill-rule="evenodd" fill-opacity="1" stroke="#000000" stroke-opacity="1" stroke-width="3.2"/>
<circle clip-path="url(#clip922)" cx="1839.26" cy="296.766" r="14.4" fill="#e26f46" fill-rule="evenodd" fill-opacity="1" stroke="#000000" stroke-opacity="1" stroke-width="3.2"/>
<polyline clip-path="url(#clip922)" style="stroke:#3da44d; stroke-linecap:round; stroke-linejoin:round; stroke-width:4; stroke-opacity:1; fill:none" stroke-dasharray="16, 10" points="324.52,1396.42 475.994,1390.81 627.467,1376.29 778.941,1346.73 930.415,1280.72 1081.89,1165.79 1233.36,960.382 1384.84,640.807 1536.31,122.198 1687.79,-643.101 1839.26,-1744.54 1990.73,-3319.99 2142.21,-5516.75 2293.68,-8476.26 "/>
<circle clip-path="url(#clip922)" cx="324.52" cy="1396.42" r="14.4" fill="#3da44d" fill-rule="evenodd" fill-opacity="1" stroke="#000000" stroke-opacity="1" stroke-width="3.2"/>
<circle clip-path="url(#clip922)" cx="475.994" cy="1390.81" r="14.4" fill="#3da44d" fill-rule="evenodd" fill-opacity="1" stroke="#000000" stroke-opacity="1" stroke-width="3.2"/>
<circle clip-path="url(#clip922)" cx="627.467" cy="1376.29" r="14.4" fill="#3da44d" fill-rule="evenodd" fill-opacity="1" stroke="#000000" stroke-opacity="1" stroke-width="3.2"/>
<circle clip-path="url(#clip922)" cx="778.941" cy="1346.73" r="14.4" fill="#3da44d" fill-rule="evenodd" fill-opacity="1" stroke="#000000" stroke-opacity="1" stroke-width="3.2"/>
<circle clip-path="url(#clip922)" cx="930.415" cy="1280.72" r="14.4" fill="#3da44d" fill-rule="evenodd" fill-opacity="1" stroke="#000000" stroke-opacity="1" stroke-width="3.2"/>
<circle clip-path="url(#clip922)" cx="1081.89" cy="1165.79" r="14.4" fill="#3da44d" fill-rule="evenodd" fill-opacity="1" stroke="#000000" stroke-opacity="1" stroke-width="3.2"/>
<circle clip-path="url(#clip922)" cx="1233.36" cy="960.382" r="14.4" fill="#3da44d" fill-rule="evenodd" fill-opacity="1" stroke="#000000" stroke-opacity="1" stroke-width="3.2"/>
<circle clip-path="url(#clip922)" cx="1384.84" cy="640.807" r="14.4" fill="#3da44d" fill-rule="evenodd" fill-opacity="1" stroke="#000000" stroke-opacity="1" stroke-width="3.2"/>
<path clip-path="url(#clip920)" d="M335.022 374.156 L749.84 374.156 L749.84 166.796 L335.022 166.796  Z" fill="#ffffff" fill-rule="evenodd" fill-opacity="1"/>
<polyline clip-path="url(#clip920)" style="stroke:#000000; stroke-linecap:round; stroke-linejoin:round; stroke-width:4; stroke-opacity:1; fill:none" points="335.022,374.156 749.84,374.156 749.84,166.796 335.022,166.796 335.022,374.156 "/>
<polyline clip-path="url(#clip920)" style="stroke:#009af9; stroke-linecap:round; stroke-linejoin:round; stroke-width:4; stroke-opacity:1; fill:none" stroke-dasharray="16, 10" points="358.214,218.636 497.368,218.636 "/>
<path clip-path="url(#clip920)" d="M539.472 213.925 L539.472 199.897 L543.732 199.897 L543.732 235.916 L539.472 235.916 L539.472 232.027 Q538.13 234.342 536.07 235.476 Q534.033 236.587 531.162 236.587 Q526.463 236.587 523.5 232.837 Q520.561 229.087 520.561 222.976 Q520.561 216.865 523.5 213.115 Q526.463 209.365 531.162 209.365 Q534.033 209.365 536.07 210.499 Q538.13 211.61 539.472 213.925 M524.959 222.976 Q524.959 227.675 526.88 230.36 Q528.824 233.022 532.204 233.022 Q535.584 233.022 537.528 230.36 Q539.472 227.675 539.472 222.976 Q539.472 218.277 537.528 215.615 Q535.584 212.93 532.204 212.93 Q528.824 212.93 526.88 215.615 Q524.959 218.277 524.959 222.976 Z" fill="#000000" fill-rule="nonzero" fill-opacity="1" /><path clip-path="url(#clip920)" d="M574.681 221.888 L574.681 223.971 L555.097 223.971 Q555.375 228.369 557.736 230.684 Q560.121 232.976 564.357 232.976 Q566.81 232.976 569.102 232.374 Q571.417 231.772 573.685 230.569 L573.685 234.596 Q571.394 235.568 568.986 236.078 Q566.579 236.587 564.102 236.587 Q557.898 236.587 554.264 232.976 Q550.653 229.365 550.653 223.207 Q550.653 216.842 554.079 213.115 Q557.528 209.365 563.361 209.365 Q568.593 209.365 571.625 212.745 Q574.681 216.101 574.681 221.888 M570.421 220.638 Q570.375 217.143 568.454 215.059 Q566.556 212.976 563.408 212.976 Q559.843 212.976 557.69 214.99 Q555.56 217.004 555.236 220.661 L570.421 220.638 Z" fill="#000000" fill-rule="nonzero" fill-opacity="1" /><path clip-path="url(#clip920)" d="M598.731 222.652 Q598.731 218.022 596.81 215.476 Q594.912 212.93 591.463 212.93 Q588.037 212.93 586.116 215.476 Q584.218 218.022 584.218 222.652 Q584.218 227.258 586.116 229.805 Q588.037 232.351 591.463 232.351 Q594.912 232.351 596.81 229.805 Q598.731 227.258 598.731 222.652 M602.991 232.698 Q602.991 239.318 600.051 242.536 Q597.111 245.777 591.046 245.777 Q588.801 245.777 586.81 245.43 Q584.819 245.105 582.944 244.411 L582.944 240.268 Q584.819 241.286 586.648 241.772 Q588.477 242.258 590.375 242.258 Q594.565 242.258 596.648 240.059 Q598.731 237.883 598.731 233.462 L598.731 231.356 Q597.412 233.647 595.352 234.781 Q593.292 235.916 590.421 235.916 Q585.653 235.916 582.736 232.281 Q579.819 228.647 579.819 222.652 Q579.819 216.633 582.736 212.999 Q585.653 209.365 590.421 209.365 Q593.292 209.365 595.352 210.499 Q597.412 211.633 598.731 213.925 L598.731 209.99 L602.991 209.99 L602.991 232.698 Z" fill="#000000" fill-rule="nonzero" fill-opacity="1" /><path clip-path="url(#clip920)" d="M626.787 213.971 Q626.069 213.555 625.213 213.37 Q624.379 213.161 623.361 213.161 Q619.75 213.161 617.805 215.522 Q615.884 217.86 615.884 222.258 L615.884 235.916 L611.602 235.916 L611.602 209.99 L615.884 209.99 L615.884 214.018 Q617.227 211.657 619.379 210.522 Q621.532 209.365 624.611 209.365 Q625.051 209.365 625.583 209.434 Q626.116 209.481 626.764 209.596 L626.787 213.971 Z" fill="#000000" fill-rule="nonzero" fill-opacity="1" /><path clip-path="url(#clip920)" d="M652.389 221.888 L652.389 223.971 L632.805 223.971 Q633.083 228.369 635.444 230.684 Q637.828 232.976 642.065 232.976 Q644.518 232.976 646.81 232.374 Q649.125 231.772 651.393 230.569 L651.393 234.596 Q649.102 235.568 646.694 236.078 Q644.287 236.587 641.81 236.587 Q635.606 236.587 631.972 232.976 Q628.361 229.365 628.361 223.207 Q628.361 216.842 631.787 213.115 Q635.236 209.365 641.069 209.365 Q646.301 209.365 649.333 212.745 Q652.389 216.101 652.389 221.888 M648.129 220.638 Q648.083 217.143 646.162 215.059 Q644.264 212.976 641.115 212.976 Q637.551 212.976 635.398 214.99 Q633.268 217.004 632.944 220.661 L648.129 220.638 Z" fill="#000000" fill-rule="nonzero" fill-opacity="1" /><path clip-path="url(#clip920)" d="M681.555 221.888 L681.555 223.971 L661.972 223.971 Q662.25 228.369 664.611 230.684 Q666.995 232.976 671.231 232.976 Q673.685 232.976 675.976 232.374 Q678.291 231.772 680.56 230.569 L680.56 234.596 Q678.268 235.568 675.861 236.078 Q673.453 236.587 670.976 236.587 Q664.773 236.587 661.138 232.976 Q657.527 229.365 657.527 223.207 Q657.527 216.842 660.953 213.115 Q664.402 209.365 670.236 209.365 Q675.467 209.365 678.5 212.745 Q681.555 216.101 681.555 221.888 M677.296 220.638 Q677.25 217.143 675.328 215.059 Q673.43 212.976 670.282 212.976 Q666.717 212.976 664.564 214.99 Q662.435 217.004 662.111 220.661 L677.296 220.638 Z" fill="#000000" fill-rule="nonzero" fill-opacity="1" /><path clip-path="url(#clip920)" d="M717.064 205.43 L705.259 223.879 L717.064 223.879 L717.064 205.43 M715.837 201.356 L721.717 201.356 L721.717 223.879 L726.647 223.879 L726.647 227.768 L721.717 227.768 L721.717 235.916 L717.064 235.916 L717.064 227.768 L701.462 227.768 L701.462 223.254 L715.837 201.356 Z" fill="#000000" fill-rule="nonzero" fill-opacity="1" /><polyline clip-path="url(#clip920)" style="stroke:#e26f46; stroke-linecap:round; stroke-linejoin:round; stroke-width:4; stroke-opacity:1; fill:none" stroke-dasharray="16, 10" points="358.214,270.476 497.368,270.476 "/>
<path clip-path="url(#clip920)" d="M539.472 265.765 L539.472 251.737 L543.732 251.737 L543.732 287.756 L539.472 287.756 L539.472 283.867 Q538.13 286.182 536.07 287.316 Q534.033 288.427 531.162 288.427 Q526.463 288.427 523.5 284.677 Q520.561 280.927 520.561 274.816 Q520.561 268.705 523.5 264.955 Q526.463 261.205 531.162 261.205 Q534.033 261.205 536.07 262.339 Q538.13 263.45 539.472 265.765 M524.959 274.816 Q524.959 279.515 526.88 282.2 Q528.824 284.862 532.204 284.862 Q535.584 284.862 537.528 282.2 Q539.472 279.515 539.472 274.816 Q539.472 270.117 537.528 267.455 Q535.584 264.77 532.204 264.77 Q528.824 264.77 526.88 267.455 Q524.959 270.117 524.959 274.816 Z" fill="#000000" fill-rule="nonzero" fill-opacity="1" /><path clip-path="url(#clip920)" d="M574.681 273.728 L574.681 275.811 L555.097 275.811 Q555.375 280.209 557.736 282.524 Q560.121 284.816 564.357 284.816 Q566.81 284.816 569.102 284.214 Q571.417 283.612 573.685 282.409 L573.685 286.436 Q571.394 287.408 568.986 287.918 Q566.579 288.427 564.102 288.427 Q557.898 288.427 554.264 284.816 Q550.653 281.205 550.653 275.047 Q550.653 268.682 554.079 264.955 Q557.528 261.205 563.361 261.205 Q568.593 261.205 571.625 264.585 Q574.681 267.941 574.681 273.728 M570.421 272.478 Q570.375 268.983 568.454 266.899 Q566.556 264.816 563.408 264.816 Q559.843 264.816 557.69 266.83 Q555.56 268.844 555.236 272.501 L570.421 272.478 Z" fill="#000000" fill-rule="nonzero" fill-opacity="1" /><path clip-path="url(#clip920)" d="M598.731 274.492 Q598.731 269.862 596.81 267.316 Q594.912 264.77 591.463 264.77 Q588.037 264.77 586.116 267.316 Q584.218 269.862 584.218 274.492 Q584.218 279.098 586.116 281.645 Q588.037 284.191 591.463 284.191 Q594.912 284.191 596.81 281.645 Q598.731 279.098 598.731 274.492 M602.991 284.538 Q602.991 291.158 600.051 294.376 Q597.111 297.617 591.046 297.617 Q588.801 297.617 586.81 297.27 Q584.819 296.945 582.944 296.251 L582.944 292.108 Q584.819 293.126 586.648 293.612 Q588.477 294.098 590.375 294.098 Q594.565 294.098 596.648 291.899 Q598.731 289.723 598.731 285.302 L598.731 283.196 Q597.412 285.487 595.352 286.621 Q593.292 287.756 590.421 287.756 Q585.653 287.756 582.736 284.121 Q579.819 280.487 579.819 274.492 Q579.819 268.473 582.736 264.839 Q585.653 261.205 590.421 261.205 Q593.292 261.205 595.352 262.339 Q597.412 263.473 598.731 265.765 L598.731 261.83 L602.991 261.83 L602.991 284.538 Z" fill="#000000" fill-rule="nonzero" fill-opacity="1" /><path clip-path="url(#clip920)" d="M626.787 265.811 Q626.069 265.395 625.213 265.21 Q624.379 265.001 623.361 265.001 Q619.75 265.001 617.805 267.362 Q615.884 269.7 615.884 274.098 L615.884 287.756 L611.602 287.756 L611.602 261.83 L615.884 261.83 L615.884 265.858 Q617.227 263.497 619.379 262.362 Q621.532 261.205 624.611 261.205 Q625.051 261.205 625.583 261.274 Q626.116 261.321 626.764 261.436 L626.787 265.811 Z" fill="#000000" fill-rule="nonzero" fill-opacity="1" /><path clip-path="url(#clip920)" d="M652.389 273.728 L652.389 275.811 L632.805 275.811 Q633.083 280.209 635.444 282.524 Q637.828 284.816 642.065 284.816 Q644.518 284.816 646.81 284.214 Q649.125 283.612 651.393 282.409 L651.393 286.436 Q649.102 287.408 646.694 287.918 Q644.287 288.427 641.81 288.427 Q635.606 288.427 631.972 284.816 Q628.361 281.205 628.361 275.047 Q628.361 268.682 631.787 264.955 Q635.236 261.205 641.069 261.205 Q646.301 261.205 649.333 264.585 Q652.389 267.941 652.389 273.728 M648.129 272.478 Q648.083 268.983 646.162 266.899 Q644.264 264.816 641.115 264.816 Q637.551 264.816 635.398 266.83 Q633.268 268.844 632.944 272.501 L648.129 272.478 Z" fill="#000000" fill-rule="nonzero" fill-opacity="1" /><path clip-path="url(#clip920)" d="M681.555 273.728 L681.555 275.811 L661.972 275.811 Q662.25 280.209 664.611 282.524 Q666.995 284.816 671.231 284.816 Q673.685 284.816 675.976 284.214 Q678.291 283.612 680.56 282.409 L680.56 286.436 Q678.268 287.408 675.861 287.918 Q673.453 288.427 670.976 288.427 Q664.773 288.427 661.138 284.816 Q657.527 281.205 657.527 275.047 Q657.527 268.682 660.953 264.955 Q664.402 261.205 670.236 261.205 Q675.467 261.205 678.5 264.585 Q681.555 267.941 681.555 273.728 M677.296 272.478 Q677.25 268.983 675.328 266.899 Q673.43 264.816 670.282 264.816 Q666.717 264.816 664.564 266.83 Q662.435 268.844 662.111 272.501 L677.296 272.478 Z" fill="#000000" fill-rule="nonzero" fill-opacity="1" /><path clip-path="url(#clip920)" d="M704.263 253.196 L722.62 253.196 L722.62 257.131 L708.546 257.131 L708.546 265.603 Q709.564 265.256 710.583 265.094 Q711.601 264.909 712.62 264.909 Q718.407 264.909 721.786 268.08 Q725.166 271.251 725.166 276.668 Q725.166 282.246 721.694 285.348 Q718.222 288.427 711.902 288.427 Q709.726 288.427 707.458 288.057 Q705.212 287.686 702.805 286.946 L702.805 282.246 Q704.888 283.381 707.11 283.936 Q709.333 284.492 711.81 284.492 Q715.814 284.492 718.152 282.385 Q720.49 280.279 720.49 276.668 Q720.49 273.057 718.152 270.95 Q715.814 268.844 711.81 268.844 Q709.935 268.844 708.06 269.26 Q706.208 269.677 704.263 270.557 L704.263 253.196 Z" fill="#000000" fill-rule="nonzero" fill-opacity="1" /><polyline clip-path="url(#clip920)" style="stroke:#3da44d; stroke-linecap:round; stroke-linejoin:round; stroke-width:4; stroke-opacity:1; fill:none" stroke-dasharray="16, 10" points="358.214,322.316 497.368,322.316 "/>
<path clip-path="url(#clip920)" d="M539.472 317.605 L539.472 303.577 L543.732 303.577 L543.732 339.596 L539.472 339.596 L539.472 335.707 Q538.13 338.022 536.07 339.156 Q534.033 340.267 531.162 340.267 Q526.463 340.267 523.5 336.517 Q520.561 332.767 520.561 326.656 Q520.561 320.545 523.5 316.795 Q526.463 313.045 531.162 313.045 Q534.033 313.045 536.07 314.179 Q538.13 315.29 539.472 317.605 M524.959 326.656 Q524.959 331.355 526.88 334.04 Q528.824 336.702 532.204 336.702 Q535.584 336.702 537.528 334.04 Q539.472 331.355 539.472 326.656 Q539.472 321.957 537.528 319.295 Q535.584 316.61 532.204 316.61 Q528.824 316.61 526.88 319.295 Q524.959 321.957 524.959 326.656 Z" fill="#000000" fill-rule="nonzero" fill-opacity="1" /><path clip-path="url(#clip920)" d="M574.681 325.568 L574.681 327.651 L555.097 327.651 Q555.375 332.049 557.736 334.364 Q560.121 336.656 564.357 336.656 Q566.81 336.656 569.102 336.054 Q571.417 335.452 573.685 334.249 L573.685 338.276 Q571.394 339.248 568.986 339.758 Q566.579 340.267 564.102 340.267 Q557.898 340.267 554.264 336.656 Q550.653 333.045 550.653 326.887 Q550.653 320.522 554.079 316.795 Q557.528 313.045 563.361 313.045 Q568.593 313.045 571.625 316.425 Q574.681 319.781 574.681 325.568 M570.421 324.318 Q570.375 320.823 568.454 318.739 Q566.556 316.656 563.408 316.656 Q559.843 316.656 557.69 318.67 Q555.56 320.684 555.236 324.341 L570.421 324.318 Z" fill="#000000" fill-rule="nonzero" fill-opacity="1" /><path clip-path="url(#clip920)" d="M598.731 326.332 Q598.731 321.702 596.81 319.156 Q594.912 316.61 591.463 316.61 Q588.037 316.61 586.116 319.156 Q584.218 321.702 584.218 326.332 Q584.218 330.938 586.116 333.485 Q588.037 336.031 591.463 336.031 Q594.912 336.031 596.81 333.485 Q598.731 330.938 598.731 326.332 M602.991 336.378 Q602.991 342.998 600.051 346.216 Q597.111 349.457 591.046 349.457 Q588.801 349.457 586.81 349.11 Q584.819 348.785 582.944 348.091 L582.944 343.948 Q584.819 344.966 586.648 345.452 Q588.477 345.938 590.375 345.938 Q594.565 345.938 596.648 343.739 Q598.731 341.563 598.731 337.142 L598.731 335.036 Q597.412 337.327 595.352 338.461 Q593.292 339.596 590.421 339.596 Q585.653 339.596 582.736 335.961 Q579.819 332.327 579.819 326.332 Q579.819 320.313 582.736 316.679 Q585.653 313.045 590.421 313.045 Q593.292 313.045 595.352 314.179 Q597.412 315.313 598.731 317.605 L598.731 313.67 L602.991 313.67 L602.991 336.378 Z" fill="#000000" fill-rule="nonzero" fill-opacity="1" /><path clip-path="url(#clip920)" d="M626.787 317.651 Q626.069 317.235 625.213 317.05 Q624.379 316.841 623.361 316.841 Q619.75 316.841 617.805 319.202 Q615.884 321.54 615.884 325.938 L615.884 339.596 L611.602 339.596 L611.602 313.67 L615.884 313.67 L615.884 317.698 Q617.227 315.337 619.379 314.202 Q621.532 313.045 624.611 313.045 Q625.051 313.045 625.583 313.114 Q626.116 313.161 626.764 313.276 L626.787 317.651 Z" fill="#000000" fill-rule="nonzero" fill-opacity="1" /><path clip-path="url(#clip920)" d="M652.389 325.568 L652.389 327.651 L632.805 327.651 Q633.083 332.049 635.444 334.364 Q637.828 336.656 642.065 336.656 Q644.518 336.656 646.81 336.054 Q649.125 335.452 651.393 334.249 L651.393 338.276 Q649.102 339.248 646.694 339.758 Q644.287 340.267 641.81 340.267 Q635.606 340.267 631.972 336.656 Q628.361 333.045 628.361 326.887 Q628.361 320.522 631.787 316.795 Q635.236 313.045 641.069 313.045 Q646.301 313.045 649.333 316.425 Q652.389 319.781 652.389 325.568 M648.129 324.318 Q648.083 320.823 646.162 318.739 Q644.264 316.656 641.115 316.656 Q637.551 316.656 635.398 318.67 Q633.268 320.684 632.944 324.341 L648.129 324.318 Z" fill="#000000" fill-rule="nonzero" fill-opacity="1" /><path clip-path="url(#clip920)" d="M681.555 325.568 L681.555 327.651 L661.972 327.651 Q662.25 332.049 664.611 334.364 Q666.995 336.656 671.231 336.656 Q673.685 336.656 675.976 336.054 Q678.291 335.452 680.56 334.249 L680.56 338.276 Q678.268 339.248 675.861 339.758 Q673.453 340.267 670.976 340.267 Q664.773 340.267 661.138 336.656 Q657.527 333.045 657.527 326.887 Q657.527 320.522 660.953 316.795 Q664.402 313.045 670.236 313.045 Q675.467 313.045 678.5 316.425 Q681.555 319.781 681.555 325.568 M677.296 324.318 Q677.25 320.823 675.328 318.739 Q673.43 316.656 670.282 316.656 Q666.717 316.656 664.564 318.67 Q662.435 320.684 662.111 324.341 L677.296 324.318 Z" fill="#000000" fill-rule="nonzero" fill-opacity="1" /><path clip-path="url(#clip920)" d="M714.796 320.452 Q711.647 320.452 709.796 322.605 Q707.967 324.758 707.967 328.508 Q707.967 332.235 709.796 334.411 Q711.647 336.563 714.796 336.563 Q717.944 336.563 719.772 334.411 Q721.624 332.235 721.624 328.508 Q721.624 324.758 719.772 322.605 Q717.944 320.452 714.796 320.452 M724.078 305.8 L724.078 310.059 Q722.319 309.226 720.513 308.786 Q718.731 308.346 716.972 308.346 Q712.342 308.346 709.888 311.471 Q707.458 314.596 707.11 320.915 Q708.476 318.901 710.536 317.837 Q712.597 316.749 715.073 316.749 Q720.282 316.749 723.291 319.92 Q726.323 323.068 726.323 328.508 Q726.323 333.832 723.175 337.049 Q720.027 340.267 714.796 340.267 Q708.8 340.267 705.629 335.684 Q702.458 331.077 702.458 322.35 Q702.458 314.156 706.347 309.295 Q710.235 304.411 716.786 304.411 Q718.546 304.411 720.328 304.758 Q722.134 305.105 724.078 305.8 Z" fill="#000000" fill-rule="nonzero" fill-opacity="1" /></svg>
